<mxfile host="app.diagrams.net" modified="2021-05-30T02:58:01.062Z" agent="5.0 (Windows NT 10.0; Win64; x64) AppleWebKit/537.36 (KHTML, like Gecko) Chrome/91.0.4472.77 Safari/537.36" etag="n8BhBUY-1HkqAyerFV3g" version="14.7.2" type="github">
  <diagram id="sSMh7Mj8uq1PbPDicRrX" name="Page-1">
    <mxGraphModel dx="3279" dy="2104" grid="1" gridSize="10" guides="1" tooltips="1" connect="1" arrows="1" fold="1" page="1" pageScale="1" pageWidth="827" pageHeight="1169" math="0" shadow="0">
      <root>
        <mxCell id="0" />
        <mxCell id="1" parent="0" />
        <mxCell id="UU9deluZrK-pCLJk1Hoc-5" style="edgeStyle=orthogonalEdgeStyle;rounded=0;orthogonalLoop=1;jettySize=auto;html=1;" parent="1" source="UU9deluZrK-pCLJk1Hoc-1" target="UU9deluZrK-pCLJk1Hoc-15" edge="1">
          <mxGeometry relative="1" as="geometry">
            <Array as="points">
              <mxPoint x="450" y="350" />
              <mxPoint x="450" y="420" />
            </Array>
          </mxGeometry>
        </mxCell>
        <mxCell id="ztVvOb2c4JuOCDaLwrAS-1193" style="edgeStyle=orthogonalEdgeStyle;rounded=0;orthogonalLoop=1;jettySize=auto;html=1;startArrow=classic;startFill=1;endArrow=none;endFill=0;exitX=0.5;exitY=0;exitDx=0;exitDy=0;exitPerimeter=0;" parent="1" source="wLyvYfdeoNj-BMRv1wWr-1" edge="1">
          <mxGeometry relative="1" as="geometry">
            <mxPoint x="546" y="-320" as="targetPoint" />
            <Array as="points">
              <mxPoint x="546" y="-280" />
            </Array>
          </mxGeometry>
        </mxCell>
        <mxCell id="ztVvOb2c4JuOCDaLwrAS-1194" value="REST&lt;br&gt;POST /period/{period}/company/{company}/gaap/{gaap}/version/{version}/category/{category}/lock&lt;br&gt;POST /period/{period}/company/{company}/gaap/{gaap}/version/{version}/category/{category}/unlock" style="edgeLabel;html=1;align=center;verticalAlign=middle;resizable=0;points=[];" parent="ztVvOb2c4JuOCDaLwrAS-1193" vertex="1" connectable="0">
          <mxGeometry x="0.1597" y="2" relative="1" as="geometry">
            <mxPoint x="264" y="3" as="offset" />
          </mxGeometry>
        </mxCell>
        <mxCell id="MRXJrDMqa9VZ29TLoG-b-24" style="edgeStyle=orthogonalEdgeStyle;rounded=0;orthogonalLoop=1;jettySize=auto;html=1;startArrow=classic;startFill=1;endArrow=none;endFill=0;exitX=0.25;exitY=0;exitDx=0;exitDy=0;exitPerimeter=0;" parent="1" source="UU9deluZrK-pCLJk1Hoc-1" edge="1">
          <mxGeometry relative="1" as="geometry">
            <mxPoint x="360" y="190" as="targetPoint" />
            <Array as="points">
              <mxPoint x="527" y="190" />
              <mxPoint x="360" y="190" />
            </Array>
          </mxGeometry>
        </mxCell>
        <mxCell id="MRXJrDMqa9VZ29TLoG-b-25" value="REST&lt;br&gt;GET /balance/{cnpj}/gaap/{id}" style="edgeLabel;html=1;align=center;verticalAlign=middle;resizable=0;points=[];" parent="MRXJrDMqa9VZ29TLoG-b-24" vertex="1" connectable="0">
          <mxGeometry x="0.1538" y="1" relative="1" as="geometry">
            <mxPoint x="-37" y="-21" as="offset" />
          </mxGeometry>
        </mxCell>
        <mxCell id="MRXJrDMqa9VZ29TLoG-b-27" style="edgeStyle=orthogonalEdgeStyle;rounded=0;orthogonalLoop=1;jettySize=auto;html=1;entryX=0;entryY=0.5;entryDx=0;entryDy=0;entryPerimeter=0;startArrow=none;startFill=0;endArrow=classic;endFill=1;" parent="1" target="MRXJrDMqa9VZ29TLoG-b-26" edge="1">
          <mxGeometry relative="1" as="geometry">
            <mxPoint x="550" y="420" as="sourcePoint" />
            <Array as="points">
              <mxPoint x="550" y="909" />
            </Array>
          </mxGeometry>
        </mxCell>
        <mxCell id="UU9deluZrK-pCLJk1Hoc-1" value="&lt;b&gt;AWS ECS&lt;/b&gt;&lt;br&gt;AccountingBalanceService" style="points=[[0,0,0],[0.25,0,0],[0.5,0,0],[0.75,0,0],[1,0,0],[0,1,0],[0.25,1,0],[0.5,1,0],[0.75,1,0],[1,1,0],[0,0.25,0],[0,0.5,0],[0,0.75,0],[1,0.25,0],[1,0.5,0],[1,0.75,0]];outlineConnect=0;fontColor=#232F3E;gradientColor=#F78E04;gradientDirection=north;fillColor=#D05C17;strokeColor=#ffffff;dashed=0;verticalLabelPosition=bottom;verticalAlign=top;align=center;html=1;fontSize=12;fontStyle=0;aspect=fixed;shape=mxgraph.aws4.resourceIcon;resIcon=mxgraph.aws4.ecs;" parent="1" vertex="1">
          <mxGeometry x="507" y="300" width="78" height="78" as="geometry" />
        </mxCell>
        <mxCell id="UU9deluZrK-pCLJk1Hoc-12" style="edgeStyle=orthogonalEdgeStyle;rounded=0;orthogonalLoop=1;jettySize=auto;html=1;" parent="1" source="UU9deluZrK-pCLJk1Hoc-2" target="UU9deluZrK-pCLJk1Hoc-11" edge="1">
          <mxGeometry relative="1" as="geometry">
            <Array as="points">
              <mxPoint x="270" y="330" />
              <mxPoint x="270" y="270" />
            </Array>
          </mxGeometry>
        </mxCell>
        <mxCell id="MRXJrDMqa9VZ29TLoG-b-64" style="edgeStyle=orthogonalEdgeStyle;rounded=0;orthogonalLoop=1;jettySize=auto;html=1;entryX=0.5;entryY=0;entryDx=0;entryDy=0;entryPerimeter=0;startArrow=none;startFill=0;endArrow=classic;endFill=1;" parent="1" target="MRXJrDMqa9VZ29TLoG-b-63" edge="1">
          <mxGeometry relative="1" as="geometry">
            <mxPoint x="150" y="420" as="sourcePoint" />
            <Array as="points">
              <mxPoint x="150" y="460" />
              <mxPoint x="91" y="460" />
            </Array>
          </mxGeometry>
        </mxCell>
        <mxCell id="wLyvYfdeoNj-BMRv1wWr-8" style="edgeStyle=orthogonalEdgeStyle;rounded=0;orthogonalLoop=1;jettySize=auto;html=1;" parent="1" target="UU9deluZrK-pCLJk1Hoc-19" edge="1">
          <mxGeometry relative="1" as="geometry">
            <mxPoint x="190" y="420" as="sourcePoint" />
            <Array as="points">
              <mxPoint x="190" y="1290" />
            </Array>
          </mxGeometry>
        </mxCell>
        <mxCell id="wLyvYfdeoNj-BMRv1wWr-11" value="REST&lt;br&gt;GET /accounts/{id}" style="edgeLabel;html=1;align=center;verticalAlign=middle;resizable=0;points=[];" parent="wLyvYfdeoNj-BMRv1wWr-8" vertex="1" connectable="0">
          <mxGeometry x="-0.3936" y="2" relative="1" as="geometry">
            <mxPoint x="48" as="offset" />
          </mxGeometry>
        </mxCell>
        <mxCell id="wLyvYfdeoNj-BMRv1wWr-9" style="edgeStyle=orthogonalEdgeStyle;rounded=0;orthogonalLoop=1;jettySize=auto;html=1;startArrow=classic;startFill=1;endArrow=none;endFill=0;" parent="1" source="UU9deluZrK-pCLJk1Hoc-2" edge="1">
          <mxGeometry relative="1" as="geometry">
            <mxPoint x="169" y="140" as="targetPoint" />
          </mxGeometry>
        </mxCell>
        <mxCell id="wLyvYfdeoNj-BMRv1wWr-10" value="PUT" style="edgeLabel;html=1;align=center;verticalAlign=middle;resizable=0;points=[];" parent="wLyvYfdeoNj-BMRv1wWr-9" vertex="1" connectable="0">
          <mxGeometry x="0.2462" y="-1" relative="1" as="geometry">
            <mxPoint x="-30" y="10" as="offset" />
          </mxGeometry>
        </mxCell>
        <mxCell id="UU9deluZrK-pCLJk1Hoc-2" value="&lt;b&gt;AWS ECS&lt;/b&gt;&lt;br&gt;AccountingRoutingService" style="points=[[0,0,0],[0.25,0,0],[0.5,0,0],[0.75,0,0],[1,0,0],[0,1,0],[0.25,1,0],[0.5,1,0],[0.75,1,0],[1,1,0],[0,0.25,0],[0,0.5,0],[0,0.75,0],[1,0.25,0],[1,0.5,0],[1,0.75,0]];outlineConnect=0;fontColor=#232F3E;gradientColor=#F78E04;gradientDirection=north;fillColor=#D05C17;strokeColor=#ffffff;dashed=0;verticalLabelPosition=bottom;verticalAlign=top;align=center;html=1;fontSize=12;fontStyle=0;aspect=fixed;shape=mxgraph.aws4.resourceIcon;resIcon=mxgraph.aws4.ecs;" parent="1" vertex="1">
          <mxGeometry x="130" y="300" width="78" height="78" as="geometry" />
        </mxCell>
        <mxCell id="UU9deluZrK-pCLJk1Hoc-13" style="edgeStyle=orthogonalEdgeStyle;rounded=0;orthogonalLoop=1;jettySize=auto;html=1;" parent="1" source="UU9deluZrK-pCLJk1Hoc-11" target="UU9deluZrK-pCLJk1Hoc-1" edge="1">
          <mxGeometry relative="1" as="geometry">
            <Array as="points">
              <mxPoint x="450" y="270" />
              <mxPoint x="450" y="330" />
            </Array>
          </mxGeometry>
        </mxCell>
        <mxCell id="UU9deluZrK-pCLJk1Hoc-11" value="&lt;span style=&quot;color: rgb(0 , 0 , 0) ; font-size: 11px ; background-color: rgb(255 , 255 , 255)&quot;&gt;&lt;b&gt;Apache Kafka&lt;br&gt;&lt;/b&gt;accouting-transaction-created&lt;/span&gt;" style="outlineConnect=0;fontColor=#232F3E;gradientColor=none;strokeColor=#232F3E;fillColor=#ffffff;dashed=0;verticalLabelPosition=bottom;verticalAlign=top;align=center;html=1;fontSize=12;fontStyle=0;aspect=fixed;shape=mxgraph.aws4.resourceIcon;resIcon=mxgraph.aws4.topic;" parent="1" vertex="1">
          <mxGeometry x="330" y="240" width="60" height="60" as="geometry" />
        </mxCell>
        <mxCell id="UU9deluZrK-pCLJk1Hoc-16" style="edgeStyle=orthogonalEdgeStyle;rounded=0;orthogonalLoop=1;jettySize=auto;html=1;" parent="1" source="UU9deluZrK-pCLJk1Hoc-15" target="UU9deluZrK-pCLJk1Hoc-2" edge="1">
          <mxGeometry relative="1" as="geometry">
            <Array as="points">
              <mxPoint x="270" y="420" />
              <mxPoint x="270" y="350" />
            </Array>
          </mxGeometry>
        </mxCell>
        <mxCell id="UU9deluZrK-pCLJk1Hoc-15" value="&lt;b&gt;&lt;span style=&quot;color: rgb(0 , 0 , 0) ; font-size: 11px ; background-color: rgb(255 , 255 , 255)&quot;&gt;Apache Kafka&lt;/span&gt;&lt;br style=&quot;color: rgb(0 , 0 , 0) ; font-size: 11px&quot;&gt;&lt;/b&gt;&lt;span style=&quot;color: rgb(0 , 0 , 0) ; font-size: 11px ; background-color: rgb(255 , 255 , 255)&quot;&gt;accouting-transaction-creation&lt;/span&gt;&lt;span style=&quot;color: rgb(0 , 0 , 0) ; font-size: 11px ; background-color: rgb(255 , 255 , 255)&quot;&gt;-failed&lt;br&gt;&lt;/span&gt;" style="outlineConnect=0;fontColor=#232F3E;gradientColor=none;strokeColor=#232F3E;fillColor=#ffffff;dashed=0;verticalLabelPosition=bottom;verticalAlign=top;align=center;html=1;fontSize=12;fontStyle=0;aspect=fixed;shape=mxgraph.aws4.resourceIcon;resIcon=mxgraph.aws4.topic;" parent="1" vertex="1">
          <mxGeometry x="330" y="390" width="60" height="60" as="geometry" />
        </mxCell>
        <mxCell id="4qVqTRqzKTblFJhMyqPV-164" style="edgeStyle=orthogonalEdgeStyle;rounded=0;orthogonalLoop=1;jettySize=auto;html=1;startArrow=none;startFill=0;endArrow=classic;endFill=1;" parent="1" target="4qVqTRqzKTblFJhMyqPV-165" edge="1">
          <mxGeometry relative="1" as="geometry">
            <mxPoint x="546" y="1380" as="sourcePoint" />
            <mxPoint x="670" y="1340" as="targetPoint" />
            <Array as="points" />
          </mxGeometry>
        </mxCell>
        <mxCell id="4qVqTRqzKTblFJhMyqPV-166" style="edgeStyle=orthogonalEdgeStyle;rounded=0;orthogonalLoop=1;jettySize=auto;html=1;startArrow=classic;startFill=1;endArrow=none;endFill=0;" parent="1" source="UU9deluZrK-pCLJk1Hoc-19" edge="1">
          <mxGeometry relative="1" as="geometry">
            <mxPoint x="190" y="1310" as="targetPoint" />
            <Array as="points">
              <mxPoint x="340" y="1310" />
            </Array>
          </mxGeometry>
        </mxCell>
        <mxCell id="4qVqTRqzKTblFJhMyqPV-167" value="REST&lt;br&gt;PUT /accounts/{id}" style="edgeLabel;html=1;align=center;verticalAlign=middle;resizable=0;points=[];" parent="4qVqTRqzKTblFJhMyqPV-166" vertex="1" connectable="0">
          <mxGeometry x="-0.2702" y="4" relative="1" as="geometry">
            <mxPoint x="-32" y="22" as="offset" />
          </mxGeometry>
        </mxCell>
        <mxCell id="UU9deluZrK-pCLJk1Hoc-19" value="&lt;b&gt;AWS ECS&lt;/b&gt;&lt;br&gt;AccoutingAccountService" style="points=[[0,0,0],[0.25,0,0],[0.5,0,0],[0.75,0,0],[1,0,0],[0,1,0],[0.25,1,0],[0.5,1,0],[0.75,1,0],[1,1,0],[0,0.25,0],[0,0.5,0],[0,0.75,0],[1,0.25,0],[1,0.5,0],[1,0.75,0]];outlineConnect=0;fontColor=#232F3E;gradientColor=#F78E04;gradientDirection=north;fillColor=#D05C17;strokeColor=#ffffff;dashed=0;verticalLabelPosition=bottom;verticalAlign=top;align=center;html=1;fontSize=12;fontStyle=0;aspect=fixed;shape=mxgraph.aws4.resourceIcon;resIcon=mxgraph.aws4.ecs;" parent="1" vertex="1">
          <mxGeometry x="507" y="1261" width="78" height="78" as="geometry" />
        </mxCell>
        <mxCell id="4qVqTRqzKTblFJhMyqPV-107" style="edgeStyle=orthogonalEdgeStyle;rounded=0;orthogonalLoop=1;jettySize=auto;html=1;startArrow=none;startFill=0;endArrow=classic;endFill=1;entryX=0;entryY=0.5;entryDx=0;entryDy=0;entryPerimeter=0;" parent="1" source="4qVqTRqzKTblFJhMyqPV-105" target="4qVqTRqzKTblFJhMyqPV-108" edge="1">
          <mxGeometry relative="1" as="geometry">
            <mxPoint x="1279" y="339" as="targetPoint" />
          </mxGeometry>
        </mxCell>
        <mxCell id="4qVqTRqzKTblFJhMyqPV-105" value="&lt;b&gt;&lt;span style=&quot;color: rgb(0 , 0 , 0) ; font-size: 11px ; background-color: rgb(255 , 255 , 255)&quot;&gt;Apache Kafka&lt;/span&gt;&lt;br style=&quot;color: rgb(0 , 0 , 0) ; font-size: 11px&quot;&gt;&lt;/b&gt;&lt;span style=&quot;color: rgb(0 , 0 , 0) ; font-size: 11px ; background-color: rgb(255 , 255 , 255)&quot;&gt;accounting-journal-entry-created (&lt;/span&gt;&lt;span style=&quot;color: rgb(0 , 0 , 0) ; font-size: 11px ; background-color: rgb(255 , 255 , 255)&quot;&gt;unordered)&lt;/span&gt;&lt;span style=&quot;color: rgb(0 , 0 , 0) ; font-size: 11px ; background-color: rgb(255 , 255 , 255)&quot;&gt;&lt;br&gt;&lt;/span&gt;" style="outlineConnect=0;fontColor=#232F3E;gradientColor=none;strokeColor=#232F3E;fillColor=#ffffff;dashed=0;verticalLabelPosition=bottom;verticalAlign=top;align=center;html=1;fontSize=12;fontStyle=0;aspect=fixed;shape=mxgraph.aws4.resourceIcon;resIcon=mxgraph.aws4.topic;" parent="1" vertex="1">
          <mxGeometry x="1050" y="309" width="60" height="60" as="geometry" />
        </mxCell>
        <mxCell id="4qVqTRqzKTblFJhMyqPV-106" value="&lt;h1&gt;Regras de Validação de Saldo de Contas&lt;/h1&gt;&lt;p&gt;Contas de integração podem ter saldo durante o dia, porém precisam terminar o dia zeradas.&lt;/p&gt;&lt;p&gt;Determinadas contas podem aumentar ou diminuir o saldo durante o mês, porém precisam terminar o mês com saldo igual ou maior que o mês anterior.&lt;/p&gt;" style="text;html=1;strokeColor=none;fillColor=none;spacing=5;spacingTop=-20;whiteSpace=wrap;overflow=hidden;rounded=0;" parent="1" vertex="1">
          <mxGeometry x="-780" y="760.5" width="840" height="120" as="geometry" />
        </mxCell>
        <mxCell id="4qVqTRqzKTblFJhMyqPV-109" style="edgeStyle=orthogonalEdgeStyle;rounded=0;orthogonalLoop=1;jettySize=auto;html=1;startArrow=none;startFill=0;endArrow=classic;endFill=1;entryX=0;entryY=0.5;entryDx=0;entryDy=0;entryPerimeter=0;" parent="1" source="4qVqTRqzKTblFJhMyqPV-108" edge="1" target="4qVqTRqzKTblFJhMyqPV-110">
          <mxGeometry relative="1" as="geometry">
            <mxPoint x="1529" y="339" as="targetPoint" />
          </mxGeometry>
        </mxCell>
        <mxCell id="4qVqTRqzKTblFJhMyqPV-108" value="&lt;b&gt;AWS EMR&lt;br&gt;&lt;/b&gt;Spark Streaming&lt;br&gt;CaptureAccountingJournalEntryEventsJob" style="points=[[0,0,0],[0.25,0,0],[0.5,0,0],[0.75,0,0],[1,0,0],[0,1,0],[0.25,1,0],[0.5,1,0],[0.75,1,0],[1,1,0],[0,0.25,0],[0,0.5,0],[0,0.75,0],[1,0.25,0],[1,0.5,0],[1,0.75,0]];outlineConnect=0;fontColor=#232F3E;gradientColor=#945DF2;gradientDirection=north;fillColor=#5A30B5;strokeColor=#ffffff;dashed=0;verticalLabelPosition=bottom;verticalAlign=top;align=center;html=1;fontSize=12;fontStyle=0;aspect=fixed;shape=mxgraph.aws4.resourceIcon;resIcon=mxgraph.aws4.emr;" parent="1" vertex="1">
          <mxGeometry x="1319" y="300" width="78" height="78" as="geometry" />
        </mxCell>
        <mxCell id="4qVqTRqzKTblFJhMyqPV-112" style="edgeStyle=orthogonalEdgeStyle;rounded=0;orthogonalLoop=1;jettySize=auto;html=1;startArrow=none;startFill=0;endArrow=classic;endFill=1;entryX=0;entryY=0.5;entryDx=0;entryDy=0;entryPerimeter=0;exitX=1;exitY=0.5;exitDx=0;exitDy=0;exitPerimeter=0;" parent="1" source="4qVqTRqzKTblFJhMyqPV-110" target="4qVqTRqzKTblFJhMyqPV-111" edge="1">
          <mxGeometry relative="1" as="geometry">
            <mxPoint x="1636" y="339" as="sourcePoint" />
            <mxPoint x="1767.999999999999" y="339" as="targetPoint" />
            <Array as="points">
              <mxPoint x="1680" y="339" />
              <mxPoint x="1680" y="339" />
            </Array>
          </mxGeometry>
        </mxCell>
        <mxCell id="4qVqTRqzKTblFJhMyqPV-202" style="edgeStyle=orthogonalEdgeStyle;rounded=0;orthogonalLoop=1;jettySize=auto;html=1;fontColor=#00FF00;startArrow=none;startFill=0;endArrow=classic;endFill=1;entryX=0;entryY=0.5;entryDx=0;entryDy=0;entryPerimeter=0;" parent="1" target="wLyvYfdeoNj-BMRv1wWr-20" edge="1">
          <mxGeometry relative="1" as="geometry">
            <Array as="points">
              <mxPoint x="1125" y="529" />
              <mxPoint x="1319" y="529" />
            </Array>
            <mxPoint x="1080" y="420" as="sourcePoint" />
            <mxPoint x="1319" y="529" as="targetPoint" />
          </mxGeometry>
        </mxCell>
        <mxCell id="4qVqTRqzKTblFJhMyqPV-110" value="&lt;b&gt;AWS S3&lt;/b&gt;&lt;br&gt;Bucket Staging&lt;br&gt;Parquet Format&lt;br&gt;Partitioned by Day&lt;br&gt;Journal Entry Events" style="points=[[0,0,0],[0.25,0,0],[0.5,0,0],[0.75,0,0],[1,0,0],[0,1,0],[0.25,1,0],[0.5,1,0],[0.75,1,0],[1,1,0],[0,0.25,0],[0,0.5,0],[0,0.75,0],[1,0.25,0],[1,0.5,0],[1,0.75,0]];outlineConnect=0;fontColor=#232F3E;gradientColor=#60A337;gradientDirection=north;fillColor=#277116;strokeColor=#ffffff;dashed=0;verticalLabelPosition=bottom;verticalAlign=top;align=center;html=1;fontSize=12;fontStyle=0;aspect=fixed;shape=mxgraph.aws4.resourceIcon;resIcon=mxgraph.aws4.s3;" parent="1" vertex="1">
          <mxGeometry x="1585" y="300" width="78" height="78" as="geometry" />
        </mxCell>
        <mxCell id="4qVqTRqzKTblFJhMyqPV-114" style="edgeStyle=orthogonalEdgeStyle;rounded=0;orthogonalLoop=1;jettySize=auto;html=1;entryX=0;entryY=0.5;entryDx=0;entryDy=0;entryPerimeter=0;startArrow=none;startFill=0;endArrow=classic;endFill=1;exitX=1;exitY=0.5;exitDx=0;exitDy=0;exitPerimeter=0;" parent="1" source="4qVqTRqzKTblFJhMyqPV-111" target="4qVqTRqzKTblFJhMyqPV-113" edge="1">
          <mxGeometry relative="1" as="geometry">
            <mxPoint x="1846" y="339" as="sourcePoint" />
            <mxPoint x="1977.999999999999" y="339" as="targetPoint" />
          </mxGeometry>
        </mxCell>
        <mxCell id="4qVqTRqzKTblFJhMyqPV-111" value="&lt;b&gt;AWS EMR&lt;br&gt;&lt;/b&gt;Spark Streaming&lt;br&gt;OptimizeAccountingJournalEntryEventsJob" style="points=[[0,0,0],[0.25,0,0],[0.5,0,0],[0.75,0,0],[1,0,0],[0,1,0],[0.25,1,0],[0.5,1,0],[0.75,1,0],[1,1,0],[0,0.25,0],[0,0.5,0],[0,0.75,0],[1,0.25,0],[1,0.5,0],[1,0.75,0]];outlineConnect=0;fontColor=#232F3E;gradientColor=#945DF2;gradientDirection=north;fillColor=#5A30B5;strokeColor=#ffffff;dashed=0;verticalLabelPosition=bottom;verticalAlign=top;align=center;html=1;fontSize=12;fontStyle=0;aspect=fixed;shape=mxgraph.aws4.resourceIcon;resIcon=mxgraph.aws4.emr;" parent="1" vertex="1">
          <mxGeometry x="1852.5" y="300" width="78" height="78" as="geometry" />
        </mxCell>
        <mxCell id="4qVqTRqzKTblFJhMyqPV-113" value="&lt;b&gt;AWS S3&lt;/b&gt;&lt;br&gt;Bucket Raw&lt;br&gt;Parquet Format&lt;br&gt;Partitioned by Day&lt;br&gt;Journal Entry Events" style="points=[[0,0,0],[0.25,0,0],[0.5,0,0],[0.75,0,0],[1,0,0],[0,1,0],[0.25,1,0],[0.5,1,0],[0.75,1,0],[1,1,0],[0,0.25,0],[0,0.5,0],[0,0.75,0],[1,0.25,0],[1,0.5,0],[1,0.75,0]];outlineConnect=0;fontColor=#232F3E;gradientColor=#60A337;gradientDirection=north;fillColor=#277116;strokeColor=#ffffff;dashed=0;verticalLabelPosition=bottom;verticalAlign=top;align=center;html=1;fontSize=12;fontStyle=0;aspect=fixed;shape=mxgraph.aws4.resourceIcon;resIcon=mxgraph.aws4.s3;" parent="1" vertex="1">
          <mxGeometry x="2141.5" y="300" width="78" height="78" as="geometry" />
        </mxCell>
        <mxCell id="4qVqTRqzKTblFJhMyqPV-173" style="edgeStyle=orthogonalEdgeStyle;rounded=0;orthogonalLoop=1;jettySize=auto;html=1;entryX=0;entryY=0.5;entryDx=0;entryDy=0;entryPerimeter=0;startArrow=none;startFill=0;endArrow=classic;endFill=1;" parent="1" source="4qVqTRqzKTblFJhMyqPV-163" target="4qVqTRqzKTblFJhMyqPV-172" edge="1">
          <mxGeometry relative="1" as="geometry" />
        </mxCell>
        <mxCell id="4qVqTRqzKTblFJhMyqPV-163" value="&lt;b&gt;&lt;span style=&quot;color: rgb(0 , 0 , 0) ; font-size: 11px ; background-color: rgb(255 , 255 , 255)&quot;&gt;Apache Kafka&lt;/span&gt;&lt;br style=&quot;color: rgb(0 , 0 , 0) ; font-size: 11px&quot;&gt;&lt;/b&gt;&lt;span style=&quot;color: rgb(0 , 0 , 0) ; font-size: 11px ; background-color: rgb(255 , 255 , 255)&quot;&gt;accounting-account-created&lt;br&gt;&lt;/span&gt;&lt;span style=&quot;color: rgb(0 , 0 , 0) ; font-size: 11px ; background-color: rgb(255 , 255 , 255)&quot;&gt;accounting-account-changed&lt;/span&gt;&lt;span style=&quot;color: rgb(0 , 0 , 0) ; font-size: 11px ; background-color: rgb(255 , 255 , 255)&quot;&gt;&lt;br&gt;&lt;/span&gt;" style="outlineConnect=0;fontColor=#232F3E;gradientColor=none;strokeColor=#232F3E;fillColor=#ffffff;dashed=0;verticalLabelPosition=bottom;verticalAlign=top;align=center;html=1;fontSize=12;fontStyle=0;aspect=fixed;shape=mxgraph.aws4.resourceIcon;resIcon=mxgraph.aws4.topic;" parent="1" vertex="1">
          <mxGeometry x="1095" y="1270" width="60" height="60" as="geometry" />
        </mxCell>
        <mxCell id="4qVqTRqzKTblFJhMyqPV-165" value="&lt;b&gt;AWS DynamoDB&lt;/b&gt;&lt;br&gt;TransactionalAccountingDB&lt;br&gt;AccountingAccount" style="points=[[0,0,0],[0.25,0,0],[0.5,0,0],[0.75,0,0],[1,0,0],[0,1,0],[0.25,1,0],[0.5,1,0],[0.75,1,0],[1,1,0],[0,0.25,0],[0,0.5,0],[0,0.75,0],[1,0.25,0],[1,0.5,0],[1,0.75,0]];outlineConnect=0;fontColor=#232F3E;gradientColor=#4D72F3;gradientDirection=north;fillColor=#3334B9;strokeColor=#ffffff;dashed=0;verticalLabelPosition=bottom;verticalAlign=top;align=center;html=1;fontSize=12;fontStyle=0;aspect=fixed;shape=mxgraph.aws4.resourceIcon;resIcon=mxgraph.aws4.dynamodb;" parent="1" vertex="1">
          <mxGeometry x="507" y="1481" width="78" height="78" as="geometry" />
        </mxCell>
        <mxCell id="4qVqTRqzKTblFJhMyqPV-170" style="edgeStyle=orthogonalEdgeStyle;rounded=0;orthogonalLoop=1;jettySize=auto;html=1;startArrow=none;startFill=0;endArrow=classic;endFill=1;exitX=1;exitY=0.5;exitDx=0;exitDy=0;exitPerimeter=0;" parent="1" source="UU9deluZrK-pCLJk1Hoc-19" target="4qVqTRqzKTblFJhMyqPV-163" edge="1">
          <mxGeometry relative="1" as="geometry">
            <mxPoint x="974" y="1300.0000000000005" as="sourcePoint" />
          </mxGeometry>
        </mxCell>
        <mxCell id="4qVqTRqzKTblFJhMyqPV-183" style="edgeStyle=orthogonalEdgeStyle;rounded=0;orthogonalLoop=1;jettySize=auto;html=1;entryX=0;entryY=0.5;entryDx=0;entryDy=0;entryPerimeter=0;startArrow=none;startFill=0;endArrow=classic;endFill=1;" parent="1" source="4qVqTRqzKTblFJhMyqPV-172" target="4qVqTRqzKTblFJhMyqPV-182" edge="1">
          <mxGeometry relative="1" as="geometry" />
        </mxCell>
        <mxCell id="4qVqTRqzKTblFJhMyqPV-172" value="&lt;b&gt;AWS EMR&lt;br&gt;&lt;/b&gt;Spark Streaming&lt;br&gt;CaptureAccountingAccountEventsJob" style="points=[[0,0,0],[0.25,0,0],[0.5,0,0],[0.75,0,0],[1,0,0],[0,1,0],[0.25,1,0],[0.5,1,0],[0.75,1,0],[1,1,0],[0,0.25,0],[0,0.5,0],[0,0.75,0],[1,0.25,0],[1,0.5,0],[1,0.75,0]];outlineConnect=0;fontColor=#232F3E;gradientColor=#945DF2;gradientDirection=north;fillColor=#5A30B5;strokeColor=#ffffff;dashed=0;verticalLabelPosition=bottom;verticalAlign=top;align=center;html=1;fontSize=12;fontStyle=0;aspect=fixed;shape=mxgraph.aws4.resourceIcon;resIcon=mxgraph.aws4.emr;" parent="1" vertex="1">
          <mxGeometry x="1319" y="1261" width="78" height="78" as="geometry" />
        </mxCell>
        <mxCell id="4qVqTRqzKTblFJhMyqPV-178" value="&lt;b&gt;AWS DynamoDB&lt;/b&gt;&lt;br&gt;TransactionalAccountingDB&lt;br&gt;AccountingBalance&lt;br&gt;AccountingPeriods" style="points=[[0,0,0],[0.25,0,0],[0.5,0,0],[0.75,0,0],[1,0,0],[0,1,0],[0.25,1,0],[0.5,1,0],[0.75,1,0],[1,1,0],[0,0.25,0],[0,0.5,0],[0,0.75,0],[1,0.25,0],[1,0.5,0],[1,0.75,0]];outlineConnect=0;fontColor=#232F3E;gradientColor=#4D72F3;gradientDirection=north;fillColor=#3334B9;strokeColor=#ffffff;dashed=0;verticalLabelPosition=bottom;verticalAlign=top;align=center;html=1;fontSize=12;fontStyle=0;aspect=fixed;shape=mxgraph.aws4.resourceIcon;resIcon=mxgraph.aws4.dynamodb;" parent="1" vertex="1">
          <mxGeometry x="640" y="489.5" width="78" height="78" as="geometry" />
        </mxCell>
        <mxCell id="4qVqTRqzKTblFJhMyqPV-180" value="" style="edgeStyle=orthogonalEdgeStyle;rounded=0;orthogonalLoop=1;jettySize=auto;html=1;startArrow=none;startFill=0;endArrow=classic;endFill=1;" parent="1" source="UU9deluZrK-pCLJk1Hoc-1" target="4qVqTRqzKTblFJhMyqPV-105" edge="1">
          <mxGeometry relative="1" as="geometry">
            <mxPoint x="700" y="339" as="targetPoint" />
            <mxPoint x="585" y="339.0000000000002" as="sourcePoint" />
          </mxGeometry>
        </mxCell>
        <mxCell id="4qVqTRqzKTblFJhMyqPV-185" style="edgeStyle=orthogonalEdgeStyle;rounded=0;orthogonalLoop=1;jettySize=auto;html=1;startArrow=none;startFill=0;endArrow=classic;endFill=1;" parent="1" source="4qVqTRqzKTblFJhMyqPV-182" target="4qVqTRqzKTblFJhMyqPV-184" edge="1">
          <mxGeometry relative="1" as="geometry" />
        </mxCell>
        <mxCell id="4qVqTRqzKTblFJhMyqPV-189" style="edgeStyle=orthogonalEdgeStyle;rounded=0;orthogonalLoop=1;jettySize=auto;html=1;entryX=0;entryY=0.5;entryDx=0;entryDy=0;entryPerimeter=0;startArrow=none;startFill=0;endArrow=classic;endFill=1;" parent="1" source="4qVqTRqzKTblFJhMyqPV-163" target="4qVqTRqzKTblFJhMyqPV-188" edge="1">
          <mxGeometry relative="1" as="geometry">
            <Array as="points">
              <mxPoint x="1220" y="1300" />
              <mxPoint x="1220" y="1520" />
            </Array>
            <mxPoint x="1170" y="1451" as="sourcePoint" />
          </mxGeometry>
        </mxCell>
        <mxCell id="4qVqTRqzKTblFJhMyqPV-182" value="&lt;b&gt;AWS S3&lt;/b&gt;&lt;br&gt;Bucket Staging&lt;br&gt;Parquet Format&lt;br&gt;Partitioned by AccountId&lt;br&gt;Accounting Account Events" style="points=[[0,0,0],[0.25,0,0],[0.5,0,0],[0.75,0,0],[1,0,0],[0,1,0],[0.25,1,0],[0.5,1,0],[0.75,1,0],[1,1,0],[0,0.25,0],[0,0.5,0],[0,0.75,0],[1,0.25,0],[1,0.5,0],[1,0.75,0]];outlineConnect=0;fontColor=#232F3E;gradientColor=#60A337;gradientDirection=north;fillColor=#277116;strokeColor=#ffffff;dashed=0;verticalLabelPosition=bottom;verticalAlign=top;align=center;html=1;fontSize=12;fontStyle=0;aspect=fixed;shape=mxgraph.aws4.resourceIcon;resIcon=mxgraph.aws4.s3;" parent="1" vertex="1">
          <mxGeometry x="1529" y="1261" width="78" height="78" as="geometry" />
        </mxCell>
        <mxCell id="4qVqTRqzKTblFJhMyqPV-187" style="edgeStyle=orthogonalEdgeStyle;rounded=0;orthogonalLoop=1;jettySize=auto;html=1;entryX=0;entryY=0.5;entryDx=0;entryDy=0;entryPerimeter=0;startArrow=none;startFill=0;endArrow=classic;endFill=1;" parent="1" source="4qVqTRqzKTblFJhMyqPV-184" target="4qVqTRqzKTblFJhMyqPV-186" edge="1">
          <mxGeometry relative="1" as="geometry" />
        </mxCell>
        <mxCell id="4qVqTRqzKTblFJhMyqPV-184" value="&lt;b&gt;AWS EMR&lt;br&gt;&lt;/b&gt;Spark Streaming&lt;br&gt;OptimizeAccountingAccountEventsJob" style="points=[[0,0,0],[0.25,0,0],[0.5,0,0],[0.75,0,0],[1,0,0],[0,1,0],[0.25,1,0],[0.5,1,0],[0.75,1,0],[1,1,0],[0,0.25,0],[0,0.5,0],[0,0.75,0],[1,0.25,0],[1,0.5,0],[1,0.75,0]];outlineConnect=0;fontColor=#232F3E;gradientColor=#945DF2;gradientDirection=north;fillColor=#5A30B5;strokeColor=#ffffff;dashed=0;verticalLabelPosition=bottom;verticalAlign=top;align=center;html=1;fontSize=12;fontStyle=0;aspect=fixed;shape=mxgraph.aws4.resourceIcon;resIcon=mxgraph.aws4.emr;" parent="1" vertex="1">
          <mxGeometry x="1739" y="1261" width="78" height="78" as="geometry" />
        </mxCell>
        <mxCell id="4qVqTRqzKTblFJhMyqPV-186" value="&lt;b&gt;AWS S3&lt;/b&gt;&lt;br&gt;Bucket Raw&lt;br&gt;Parquet Format&lt;br&gt;Partitioned by AccountId&lt;br&gt;Accounting Account Events" style="points=[[0,0,0],[0.25,0,0],[0.5,0,0],[0.75,0,0],[1,0,0],[0,1,0],[0.25,1,0],[0.5,1,0],[0.75,1,0],[1,1,0],[0,0.25,0],[0,0.5,0],[0,0.75,0],[1,0.25,0],[1,0.5,0],[1,0.75,0]];outlineConnect=0;fontColor=#232F3E;gradientColor=#60A337;gradientDirection=north;fillColor=#277116;strokeColor=#ffffff;dashed=0;verticalLabelPosition=bottom;verticalAlign=top;align=center;html=1;fontSize=12;fontStyle=0;aspect=fixed;shape=mxgraph.aws4.resourceIcon;resIcon=mxgraph.aws4.s3;" parent="1" vertex="1">
          <mxGeometry x="1949" y="1261" width="78" height="78" as="geometry" />
        </mxCell>
        <mxCell id="4qVqTRqzKTblFJhMyqPV-191" style="edgeStyle=orthogonalEdgeStyle;rounded=0;orthogonalLoop=1;jettySize=auto;html=1;entryX=0;entryY=0.5;entryDx=0;entryDy=0;entryPerimeter=0;startArrow=none;startFill=0;endArrow=classic;endFill=1;" parent="1" source="4qVqTRqzKTblFJhMyqPV-188" target="4qVqTRqzKTblFJhMyqPV-192" edge="1">
          <mxGeometry relative="1" as="geometry">
            <mxPoint x="1948.9999999999995" y="1520" as="targetPoint" />
          </mxGeometry>
        </mxCell>
        <mxCell id="4qVqTRqzKTblFJhMyqPV-188" value="&lt;b&gt;AWS EMR&lt;br&gt;&lt;/b&gt;Spark Streaming&lt;br&gt;ProjectAccountingAccountStateJob" style="points=[[0,0,0],[0.25,0,0],[0.5,0,0],[0.75,0,0],[1,0,0],[0,1,0],[0.25,1,0],[0.5,1,0],[0.75,1,0],[1,1,0],[0,0.25,0],[0,0.5,0],[0,0.75,0],[1,0.25,0],[1,0.5,0],[1,0.75,0]];outlineConnect=0;fontColor=#232F3E;gradientColor=#945DF2;gradientDirection=north;fillColor=#5A30B5;strokeColor=#ffffff;dashed=0;verticalLabelPosition=bottom;verticalAlign=top;align=center;html=1;fontSize=12;fontStyle=0;aspect=fixed;shape=mxgraph.aws4.resourceIcon;resIcon=mxgraph.aws4.emr;" parent="1" vertex="1">
          <mxGeometry x="1319" y="1481" width="78" height="78" as="geometry" />
        </mxCell>
        <mxCell id="MRXJrDMqa9VZ29TLoG-b-54" style="edgeStyle=orthogonalEdgeStyle;rounded=0;orthogonalLoop=1;jettySize=auto;html=1;entryX=-0.001;entryY=0.923;entryDx=0;entryDy=0;entryPerimeter=0;startArrow=none;startFill=0;endArrow=classic;endFill=1;" parent="1" source="4qVqTRqzKTblFJhMyqPV-192" target="MRXJrDMqa9VZ29TLoG-b-34" edge="1">
          <mxGeometry relative="1" as="geometry" />
        </mxCell>
        <mxCell id="4qVqTRqzKTblFJhMyqPV-192" value="&lt;b&gt;AWS DynamoDB&lt;/b&gt;&lt;br&gt;AnalyticalAccountingDB&lt;br&gt;AccountingAccounts" style="points=[[0,0,0],[0.25,0,0],[0.5,0,0],[0.75,0,0],[1,0,0],[0,1,0],[0.25,1,0],[0.5,1,0],[0.75,1,0],[1,1,0],[0,0.25,0],[0,0.5,0],[0,0.75,0],[1,0.25,0],[1,0.5,0],[1,0.75,0]];outlineConnect=0;fontColor=#232F3E;gradientColor=#4D72F3;gradientDirection=north;fillColor=#3334B9;strokeColor=#ffffff;dashed=0;verticalLabelPosition=bottom;verticalAlign=top;align=center;html=1;fontSize=12;fontStyle=0;aspect=fixed;shape=mxgraph.aws4.resourceIcon;resIcon=mxgraph.aws4.dynamodb;" parent="1" vertex="1">
          <mxGeometry x="1529" y="1481" width="78" height="78" as="geometry" />
        </mxCell>
        <mxCell id="4qVqTRqzKTblFJhMyqPV-203" style="edgeStyle=orthogonalEdgeStyle;rounded=0;orthogonalLoop=1;jettySize=auto;html=1;entryX=0;entryY=0.5;entryDx=0;entryDy=0;entryPerimeter=0;fontColor=#00FF00;startArrow=none;startFill=0;endArrow=classic;endFill=1;" parent="1" source="2LelLOpR1p7l8fURc_7i-20" target="ztVvOb2c4JuOCDaLwrAS-1208" edge="1">
          <mxGeometry relative="1" as="geometry">
            <mxPoint x="1529" y="529" as="targetPoint" />
            <mxPoint x="1690" y="529" as="sourcePoint" />
          </mxGeometry>
        </mxCell>
        <mxCell id="4qVqTRqzKTblFJhMyqPV-208" value="EVERYDAY 1:00 AM" style="shape=image;html=1;verticalAlign=bottom;verticalLabelPosition=top;labelBackgroundColor=#ffffff;imageAspect=0;aspect=fixed;image=https://cdn3.iconfinder.com/data/icons/material-inspired-2/16/27-128.png;labelPosition=center;align=center;" parent="1" vertex="1">
          <mxGeometry x="1903.5" y="279" width="42" height="42" as="geometry" />
        </mxCell>
        <mxCell id="ztVvOb2c4JuOCDaLwrAS-364" value="" style="shape=table;html=1;whiteSpace=wrap;startSize=0;container=1;collapsible=0;childLayout=tableLayout;" parent="1" vertex="1">
          <mxGeometry x="2281" y="254" width="1075" height="188" as="geometry" />
        </mxCell>
        <mxCell id="ztVvOb2c4JuOCDaLwrAS-365" value="" style="shape=partialRectangle;html=1;whiteSpace=wrap;collapsible=0;dropTarget=0;pointerEvents=0;fillColor=none;top=0;left=0;bottom=0;right=0;points=[[0,0.5],[1,0.5]];portConstraint=eastwest;" parent="ztVvOb2c4JuOCDaLwrAS-364" vertex="1">
          <mxGeometry width="1075" height="27" as="geometry" />
        </mxCell>
        <mxCell id="ztVvOb2c4JuOCDaLwrAS-366" value="account_id" style="shape=partialRectangle;html=1;whiteSpace=wrap;connectable=0;fillColor=none;top=0;left=0;bottom=0;right=0;overflow=hidden;" parent="ztVvOb2c4JuOCDaLwrAS-365" vertex="1">
          <mxGeometry width="135" height="27" as="geometry" />
        </mxCell>
        <mxCell id="ztVvOb2c4JuOCDaLwrAS-367" value="entry_id" style="shape=partialRectangle;html=1;whiteSpace=wrap;connectable=0;fillColor=none;top=0;left=0;bottom=0;right=0;overflow=hidden;" parent="ztVvOb2c4JuOCDaLwrAS-365" vertex="1">
          <mxGeometry x="135" width="135" height="27" as="geometry" />
        </mxCell>
        <mxCell id="ztVvOb2c4JuOCDaLwrAS-368" value="transaction_id" style="shape=partialRectangle;html=1;whiteSpace=wrap;connectable=0;fillColor=none;top=0;left=0;bottom=0;right=0;overflow=hidden;" parent="ztVvOb2c4JuOCDaLwrAS-365" vertex="1">
          <mxGeometry x="270" width="135" height="27" as="geometry" />
        </mxCell>
        <mxCell id="ztVvOb2c4JuOCDaLwrAS-369" value="transaction_date_time" style="shape=partialRectangle;html=1;whiteSpace=wrap;connectable=0;fillColor=none;top=0;left=0;bottom=0;right=0;overflow=hidden;" parent="ztVvOb2c4JuOCDaLwrAS-365" vertex="1">
          <mxGeometry x="405" width="133" height="27" as="geometry" />
        </mxCell>
        <mxCell id="ztVvOb2c4JuOCDaLwrAS-370" value="accounting_date_time" style="shape=partialRectangle;html=1;whiteSpace=wrap;connectable=0;fillColor=none;top=0;left=0;bottom=0;right=0;overflow=hidden;" parent="ztVvOb2c4JuOCDaLwrAS-365" vertex="1">
          <mxGeometry x="538" width="134" height="27" as="geometry" />
        </mxCell>
        <mxCell id="2LelLOpR1p7l8fURc_7i-13" value="debit" style="shape=partialRectangle;html=1;whiteSpace=wrap;connectable=0;fillColor=none;top=0;left=0;bottom=0;right=0;overflow=hidden;" vertex="1" parent="ztVvOb2c4JuOCDaLwrAS-365">
          <mxGeometry x="672" width="134" height="27" as="geometry" />
        </mxCell>
        <mxCell id="2LelLOpR1p7l8fURc_7i-6" value="credit" style="shape=partialRectangle;html=1;whiteSpace=wrap;connectable=0;fillColor=none;top=0;left=0;bottom=0;right=0;overflow=hidden;" vertex="1" parent="ztVvOb2c4JuOCDaLwrAS-365">
          <mxGeometry x="806" width="134" height="27" as="geometry" />
        </mxCell>
        <mxCell id="ztVvOb2c4JuOCDaLwrAS-371" value="movement" style="shape=partialRectangle;html=1;whiteSpace=wrap;connectable=0;fillColor=none;top=0;left=0;bottom=0;right=0;overflow=hidden;" parent="ztVvOb2c4JuOCDaLwrAS-365" vertex="1">
          <mxGeometry x="940" width="135" height="27" as="geometry" />
        </mxCell>
        <mxCell id="ztVvOb2c4JuOCDaLwrAS-372" value="" style="shape=partialRectangle;html=1;whiteSpace=wrap;collapsible=0;dropTarget=0;pointerEvents=0;fillColor=none;top=0;left=0;bottom=0;right=0;points=[[0,0.5],[1,0.5]];portConstraint=eastwest;" parent="ztVvOb2c4JuOCDaLwrAS-364" vertex="1">
          <mxGeometry y="27" width="1075" height="26" as="geometry" />
        </mxCell>
        <mxCell id="ztVvOb2c4JuOCDaLwrAS-373" value="&lt;span&gt;111111&lt;/span&gt;" style="shape=partialRectangle;html=1;whiteSpace=wrap;connectable=0;top=0;left=0;bottom=0;right=0;overflow=hidden;strokeColor=#82b366;fillColor=none;" parent="ztVvOb2c4JuOCDaLwrAS-372" vertex="1">
          <mxGeometry width="135" height="26" as="geometry" />
        </mxCell>
        <mxCell id="ztVvOb2c4JuOCDaLwrAS-374" value="{UUID}" style="shape=partialRectangle;html=1;whiteSpace=wrap;connectable=0;top=0;left=0;bottom=0;right=0;overflow=hidden;strokeColor=#82b366;fillColor=none;" parent="ztVvOb2c4JuOCDaLwrAS-372" vertex="1">
          <mxGeometry x="135" width="135" height="26" as="geometry" />
        </mxCell>
        <mxCell id="ztVvOb2c4JuOCDaLwrAS-375" value="&lt;span&gt;{UUID}&lt;/span&gt;" style="shape=partialRectangle;html=1;whiteSpace=wrap;connectable=0;top=0;left=0;bottom=0;right=0;overflow=hidden;strokeColor=#82b366;fillColor=none;" parent="ztVvOb2c4JuOCDaLwrAS-372" vertex="1">
          <mxGeometry x="270" width="135" height="26" as="geometry" />
        </mxCell>
        <mxCell id="ztVvOb2c4JuOCDaLwrAS-376" value="2017-12-31 02:00" style="shape=partialRectangle;html=1;whiteSpace=wrap;connectable=0;top=0;left=0;bottom=0;right=0;overflow=hidden;strokeColor=#82b366;fillColor=none;" parent="ztVvOb2c4JuOCDaLwrAS-372" vertex="1">
          <mxGeometry x="405" width="133" height="26" as="geometry" />
        </mxCell>
        <mxCell id="ztVvOb2c4JuOCDaLwrAS-377" value="&lt;span&gt;2017-12-31 02:00&lt;/span&gt;" style="shape=partialRectangle;html=1;whiteSpace=wrap;connectable=0;top=0;left=0;bottom=0;right=0;overflow=hidden;strokeColor=#82b366;fillColor=none;" parent="ztVvOb2c4JuOCDaLwrAS-372" vertex="1">
          <mxGeometry x="538" width="134" height="26" as="geometry" />
        </mxCell>
        <mxCell id="2LelLOpR1p7l8fURc_7i-14" style="shape=partialRectangle;html=1;whiteSpace=wrap;connectable=0;top=0;left=0;bottom=0;right=0;overflow=hidden;strokeColor=#82b366;fillColor=none;" vertex="1" parent="ztVvOb2c4JuOCDaLwrAS-372">
          <mxGeometry x="672" width="134" height="26" as="geometry" />
        </mxCell>
        <mxCell id="2LelLOpR1p7l8fURc_7i-7" style="shape=partialRectangle;html=1;whiteSpace=wrap;connectable=0;top=0;left=0;bottom=0;right=0;overflow=hidden;strokeColor=#82b366;fillColor=none;" vertex="1" parent="ztVvOb2c4JuOCDaLwrAS-372">
          <mxGeometry x="806" width="134" height="26" as="geometry" />
        </mxCell>
        <mxCell id="ztVvOb2c4JuOCDaLwrAS-378" value="-100" style="shape=partialRectangle;html=1;whiteSpace=wrap;connectable=0;top=0;left=0;bottom=0;right=0;overflow=hidden;strokeColor=#82b366;fillColor=none;" parent="ztVvOb2c4JuOCDaLwrAS-372" vertex="1">
          <mxGeometry x="940" width="135" height="26" as="geometry" />
        </mxCell>
        <mxCell id="ztVvOb2c4JuOCDaLwrAS-386" value="" style="shape=partialRectangle;html=1;whiteSpace=wrap;collapsible=0;dropTarget=0;pointerEvents=0;fillColor=none;top=0;left=0;bottom=0;right=0;points=[[0,0.5],[1,0.5]];portConstraint=eastwest;" parent="ztVvOb2c4JuOCDaLwrAS-364" vertex="1">
          <mxGeometry y="53" width="1075" height="27" as="geometry" />
        </mxCell>
        <mxCell id="ztVvOb2c4JuOCDaLwrAS-387" value="&lt;span&gt;111111&lt;/span&gt;" style="shape=partialRectangle;html=1;whiteSpace=wrap;connectable=0;top=0;left=0;bottom=0;right=0;overflow=hidden;strokeColor=#82b366;fillColor=none;" parent="ztVvOb2c4JuOCDaLwrAS-386" vertex="1">
          <mxGeometry width="135" height="27" as="geometry" />
        </mxCell>
        <mxCell id="ztVvOb2c4JuOCDaLwrAS-388" value="&lt;span&gt;{UUID}&lt;/span&gt;" style="shape=partialRectangle;html=1;whiteSpace=wrap;connectable=0;top=0;left=0;bottom=0;right=0;overflow=hidden;strokeColor=#82b366;fillColor=none;" parent="ztVvOb2c4JuOCDaLwrAS-386" vertex="1">
          <mxGeometry x="135" width="135" height="27" as="geometry" />
        </mxCell>
        <mxCell id="ztVvOb2c4JuOCDaLwrAS-389" value="&lt;span&gt;{UUID}&lt;/span&gt;" style="shape=partialRectangle;html=1;whiteSpace=wrap;connectable=0;top=0;left=0;bottom=0;right=0;overflow=hidden;strokeColor=#82b366;fillColor=none;" parent="ztVvOb2c4JuOCDaLwrAS-386" vertex="1">
          <mxGeometry x="270" width="135" height="27" as="geometry" />
        </mxCell>
        <mxCell id="ztVvOb2c4JuOCDaLwrAS-390" value="&lt;span&gt;2018-01-01 00:30&lt;/span&gt;" style="shape=partialRectangle;html=1;whiteSpace=wrap;connectable=0;top=0;left=0;bottom=0;right=0;overflow=hidden;strokeColor=#82b366;fillColor=none;" parent="ztVvOb2c4JuOCDaLwrAS-386" vertex="1">
          <mxGeometry x="405" width="133" height="27" as="geometry" />
        </mxCell>
        <mxCell id="ztVvOb2c4JuOCDaLwrAS-391" value="2017-12-31 00:00" style="shape=partialRectangle;html=1;whiteSpace=wrap;connectable=0;top=0;left=0;bottom=0;right=0;overflow=hidden;strokeColor=#82b366;fillColor=none;" parent="ztVvOb2c4JuOCDaLwrAS-386" vertex="1">
          <mxGeometry x="538" width="134" height="27" as="geometry" />
        </mxCell>
        <mxCell id="2LelLOpR1p7l8fURc_7i-15" style="shape=partialRectangle;html=1;whiteSpace=wrap;connectable=0;top=0;left=0;bottom=0;right=0;overflow=hidden;strokeColor=#82b366;fillColor=none;" vertex="1" parent="ztVvOb2c4JuOCDaLwrAS-386">
          <mxGeometry x="672" width="134" height="27" as="geometry" />
        </mxCell>
        <mxCell id="2LelLOpR1p7l8fURc_7i-8" style="shape=partialRectangle;html=1;whiteSpace=wrap;connectable=0;top=0;left=0;bottom=0;right=0;overflow=hidden;strokeColor=#82b366;fillColor=none;" vertex="1" parent="ztVvOb2c4JuOCDaLwrAS-386">
          <mxGeometry x="806" width="134" height="27" as="geometry" />
        </mxCell>
        <mxCell id="ztVvOb2c4JuOCDaLwrAS-392" value="-100" style="shape=partialRectangle;html=1;whiteSpace=wrap;connectable=0;top=0;left=0;bottom=0;right=0;overflow=hidden;strokeColor=#82b366;fillColor=none;" parent="ztVvOb2c4JuOCDaLwrAS-386" vertex="1">
          <mxGeometry x="940" width="135" height="27" as="geometry" />
        </mxCell>
        <mxCell id="ztVvOb2c4JuOCDaLwrAS-877" style="shape=partialRectangle;html=1;whiteSpace=wrap;collapsible=0;dropTarget=0;pointerEvents=0;fillColor=none;top=0;left=0;bottom=0;right=0;points=[[0,0.5],[1,0.5]];portConstraint=eastwest;" parent="ztVvOb2c4JuOCDaLwrAS-364" vertex="1">
          <mxGeometry y="80" width="1075" height="27" as="geometry" />
        </mxCell>
        <mxCell id="ztVvOb2c4JuOCDaLwrAS-878" value="&lt;span&gt;111111&lt;/span&gt;" style="shape=partialRectangle;html=1;whiteSpace=wrap;connectable=0;top=0;left=0;bottom=0;right=0;overflow=hidden;strokeColor=#82b366;fillColor=none;" parent="ztVvOb2c4JuOCDaLwrAS-877" vertex="1">
          <mxGeometry width="135" height="27" as="geometry" />
        </mxCell>
        <mxCell id="ztVvOb2c4JuOCDaLwrAS-879" value="&lt;span&gt;{UUID}&lt;/span&gt;" style="shape=partialRectangle;html=1;whiteSpace=wrap;connectable=0;top=0;left=0;bottom=0;right=0;overflow=hidden;strokeColor=#82b366;fillColor=none;" parent="ztVvOb2c4JuOCDaLwrAS-877" vertex="1">
          <mxGeometry x="135" width="135" height="27" as="geometry" />
        </mxCell>
        <mxCell id="ztVvOb2c4JuOCDaLwrAS-880" value="&lt;span&gt;{UUID}&lt;/span&gt;" style="shape=partialRectangle;html=1;whiteSpace=wrap;connectable=0;top=0;left=0;bottom=0;right=0;overflow=hidden;strokeColor=#82b366;fillColor=none;" parent="ztVvOb2c4JuOCDaLwrAS-877" vertex="1">
          <mxGeometry x="270" width="135" height="27" as="geometry" />
        </mxCell>
        <mxCell id="ztVvOb2c4JuOCDaLwrAS-881" value="&lt;span&gt;2018-01-01 00:31&lt;/span&gt;" style="shape=partialRectangle;html=1;whiteSpace=wrap;connectable=0;top=0;left=0;bottom=0;right=0;overflow=hidden;strokeColor=#82b366;fillColor=none;" parent="ztVvOb2c4JuOCDaLwrAS-877" vertex="1">
          <mxGeometry x="405" width="133" height="27" as="geometry" />
        </mxCell>
        <mxCell id="ztVvOb2c4JuOCDaLwrAS-882" value="2018-01-01 00:31" style="shape=partialRectangle;html=1;whiteSpace=wrap;connectable=0;top=0;left=0;bottom=0;right=0;overflow=hidden;strokeColor=#82b366;fillColor=none;" parent="ztVvOb2c4JuOCDaLwrAS-877" vertex="1">
          <mxGeometry x="538" width="134" height="27" as="geometry" />
        </mxCell>
        <mxCell id="2LelLOpR1p7l8fURc_7i-16" style="shape=partialRectangle;html=1;whiteSpace=wrap;connectable=0;top=0;left=0;bottom=0;right=0;overflow=hidden;strokeColor=#82b366;fillColor=none;" vertex="1" parent="ztVvOb2c4JuOCDaLwrAS-877">
          <mxGeometry x="672" width="134" height="27" as="geometry" />
        </mxCell>
        <mxCell id="2LelLOpR1p7l8fURc_7i-9" style="shape=partialRectangle;html=1;whiteSpace=wrap;connectable=0;top=0;left=0;bottom=0;right=0;overflow=hidden;strokeColor=#82b366;fillColor=none;" vertex="1" parent="ztVvOb2c4JuOCDaLwrAS-877">
          <mxGeometry x="806" width="134" height="27" as="geometry" />
        </mxCell>
        <mxCell id="ztVvOb2c4JuOCDaLwrAS-883" value="&lt;span&gt;-100&lt;/span&gt;" style="shape=partialRectangle;html=1;whiteSpace=wrap;connectable=0;top=0;left=0;bottom=0;right=0;overflow=hidden;strokeColor=#82b366;fillColor=none;" parent="ztVvOb2c4JuOCDaLwrAS-877" vertex="1">
          <mxGeometry x="940" width="135" height="27" as="geometry" />
        </mxCell>
        <mxCell id="ztVvOb2c4JuOCDaLwrAS-953" style="shape=partialRectangle;html=1;whiteSpace=wrap;collapsible=0;dropTarget=0;pointerEvents=0;fillColor=none;top=0;left=0;bottom=0;right=0;points=[[0,0.5],[1,0.5]];portConstraint=eastwest;" parent="ztVvOb2c4JuOCDaLwrAS-364" vertex="1">
          <mxGeometry y="107" width="1075" height="27" as="geometry" />
        </mxCell>
        <mxCell id="ztVvOb2c4JuOCDaLwrAS-954" value="&lt;span&gt;111111&lt;/span&gt;" style="shape=partialRectangle;html=1;whiteSpace=wrap;connectable=0;top=0;left=0;bottom=0;right=0;overflow=hidden;strokeColor=#82b366;fillColor=none;" parent="ztVvOb2c4JuOCDaLwrAS-953" vertex="1">
          <mxGeometry width="135" height="27" as="geometry" />
        </mxCell>
        <mxCell id="ztVvOb2c4JuOCDaLwrAS-955" value="&lt;span&gt;{UUID}&lt;/span&gt;" style="shape=partialRectangle;html=1;whiteSpace=wrap;connectable=0;top=0;left=0;bottom=0;right=0;overflow=hidden;strokeColor=#82b366;fillColor=none;" parent="ztVvOb2c4JuOCDaLwrAS-953" vertex="1">
          <mxGeometry x="135" width="135" height="27" as="geometry" />
        </mxCell>
        <mxCell id="ztVvOb2c4JuOCDaLwrAS-956" value="&lt;span&gt;{UUID}&lt;/span&gt;" style="shape=partialRectangle;html=1;whiteSpace=wrap;connectable=0;top=0;left=0;bottom=0;right=0;overflow=hidden;strokeColor=#82b366;fillColor=none;" parent="ztVvOb2c4JuOCDaLwrAS-953" vertex="1">
          <mxGeometry x="270" width="135" height="27" as="geometry" />
        </mxCell>
        <mxCell id="ztVvOb2c4JuOCDaLwrAS-957" value="&lt;span&gt;2018-01-01 00:32&lt;/span&gt;" style="shape=partialRectangle;html=1;whiteSpace=wrap;connectable=0;top=0;left=0;bottom=0;right=0;overflow=hidden;strokeColor=#82b366;fillColor=none;" parent="ztVvOb2c4JuOCDaLwrAS-953" vertex="1">
          <mxGeometry x="405" width="133" height="27" as="geometry" />
        </mxCell>
        <mxCell id="ztVvOb2c4JuOCDaLwrAS-958" value="&lt;span&gt;2017-12-30 00:00&lt;/span&gt;" style="shape=partialRectangle;html=1;whiteSpace=wrap;connectable=0;top=0;left=0;bottom=0;right=0;overflow=hidden;strokeColor=#82b366;fillColor=none;" parent="ztVvOb2c4JuOCDaLwrAS-953" vertex="1">
          <mxGeometry x="538" width="134" height="27" as="geometry" />
        </mxCell>
        <mxCell id="2LelLOpR1p7l8fURc_7i-17" style="shape=partialRectangle;html=1;whiteSpace=wrap;connectable=0;top=0;left=0;bottom=0;right=0;overflow=hidden;strokeColor=#82b366;fillColor=none;" vertex="1" parent="ztVvOb2c4JuOCDaLwrAS-953">
          <mxGeometry x="672" width="134" height="27" as="geometry" />
        </mxCell>
        <mxCell id="2LelLOpR1p7l8fURc_7i-10" style="shape=partialRectangle;html=1;whiteSpace=wrap;connectable=0;top=0;left=0;bottom=0;right=0;overflow=hidden;strokeColor=#82b366;fillColor=none;" vertex="1" parent="ztVvOb2c4JuOCDaLwrAS-953">
          <mxGeometry x="806" width="134" height="27" as="geometry" />
        </mxCell>
        <mxCell id="ztVvOb2c4JuOCDaLwrAS-959" value="-100" style="shape=partialRectangle;html=1;whiteSpace=wrap;connectable=0;top=0;left=0;bottom=0;right=0;overflow=hidden;strokeColor=#82b366;fillColor=none;" parent="ztVvOb2c4JuOCDaLwrAS-953" vertex="1">
          <mxGeometry x="940" width="135" height="27" as="geometry" />
        </mxCell>
        <mxCell id="ztVvOb2c4JuOCDaLwrAS-891" style="shape=partialRectangle;html=1;whiteSpace=wrap;collapsible=0;dropTarget=0;pointerEvents=0;fillColor=none;top=0;left=0;bottom=0;right=0;points=[[0,0.5],[1,0.5]];portConstraint=eastwest;" parent="ztVvOb2c4JuOCDaLwrAS-364" vertex="1">
          <mxGeometry y="134" width="1075" height="27" as="geometry" />
        </mxCell>
        <mxCell id="ztVvOb2c4JuOCDaLwrAS-892" value="&lt;span&gt;111111&lt;/span&gt;" style="shape=partialRectangle;html=1;whiteSpace=wrap;connectable=0;top=0;left=0;bottom=0;right=0;overflow=hidden;strokeColor=#82b366;fillColor=none;" parent="ztVvOb2c4JuOCDaLwrAS-891" vertex="1">
          <mxGeometry width="135" height="27" as="geometry" />
        </mxCell>
        <mxCell id="ztVvOb2c4JuOCDaLwrAS-893" value="&lt;span&gt;{UUID}&lt;/span&gt;" style="shape=partialRectangle;html=1;whiteSpace=wrap;connectable=0;top=0;left=0;bottom=0;right=0;overflow=hidden;strokeColor=#82b366;fillColor=none;" parent="ztVvOb2c4JuOCDaLwrAS-891" vertex="1">
          <mxGeometry x="135" width="135" height="27" as="geometry" />
        </mxCell>
        <mxCell id="ztVvOb2c4JuOCDaLwrAS-894" value="&lt;span&gt;{UUID}&lt;/span&gt;" style="shape=partialRectangle;html=1;whiteSpace=wrap;connectable=0;top=0;left=0;bottom=0;right=0;overflow=hidden;strokeColor=#82b366;fillColor=none;" parent="ztVvOb2c4JuOCDaLwrAS-891" vertex="1">
          <mxGeometry x="270" width="135" height="27" as="geometry" />
        </mxCell>
        <mxCell id="ztVvOb2c4JuOCDaLwrAS-895" value="&lt;span&gt;2018-01-01 02:00&lt;/span&gt;" style="shape=partialRectangle;html=1;whiteSpace=wrap;connectable=0;top=0;left=0;bottom=0;right=0;overflow=hidden;strokeColor=#82b366;fillColor=none;" parent="ztVvOb2c4JuOCDaLwrAS-891" vertex="1">
          <mxGeometry x="405" width="133" height="27" as="geometry" />
        </mxCell>
        <mxCell id="ztVvOb2c4JuOCDaLwrAS-896" value="2018-01-01 02:00" style="shape=partialRectangle;html=1;whiteSpace=wrap;connectable=0;top=0;left=0;bottom=0;right=0;overflow=hidden;strokeColor=#82b366;fillColor=none;" parent="ztVvOb2c4JuOCDaLwrAS-891" vertex="1">
          <mxGeometry x="538" width="134" height="27" as="geometry" />
        </mxCell>
        <mxCell id="2LelLOpR1p7l8fURc_7i-18" style="shape=partialRectangle;html=1;whiteSpace=wrap;connectable=0;top=0;left=0;bottom=0;right=0;overflow=hidden;strokeColor=#82b366;fillColor=none;" vertex="1" parent="ztVvOb2c4JuOCDaLwrAS-891">
          <mxGeometry x="672" width="134" height="27" as="geometry" />
        </mxCell>
        <mxCell id="2LelLOpR1p7l8fURc_7i-11" style="shape=partialRectangle;html=1;whiteSpace=wrap;connectable=0;top=0;left=0;bottom=0;right=0;overflow=hidden;strokeColor=#82b366;fillColor=none;" vertex="1" parent="ztVvOb2c4JuOCDaLwrAS-891">
          <mxGeometry x="806" width="134" height="27" as="geometry" />
        </mxCell>
        <mxCell id="ztVvOb2c4JuOCDaLwrAS-897" value="-100" style="shape=partialRectangle;html=1;whiteSpace=wrap;connectable=0;top=0;left=0;bottom=0;right=0;overflow=hidden;strokeColor=#82b366;fillColor=none;" parent="ztVvOb2c4JuOCDaLwrAS-891" vertex="1">
          <mxGeometry x="940" width="135" height="27" as="geometry" />
        </mxCell>
        <mxCell id="ztVvOb2c4JuOCDaLwrAS-905" style="shape=partialRectangle;html=1;whiteSpace=wrap;collapsible=0;dropTarget=0;pointerEvents=0;fillColor=none;top=0;left=0;bottom=0;right=0;points=[[0,0.5],[1,0.5]];portConstraint=eastwest;" parent="ztVvOb2c4JuOCDaLwrAS-364" vertex="1">
          <mxGeometry y="161" width="1075" height="27" as="geometry" />
        </mxCell>
        <mxCell id="ztVvOb2c4JuOCDaLwrAS-906" value="&lt;span&gt;111111&lt;/span&gt;" style="shape=partialRectangle;html=1;whiteSpace=wrap;connectable=0;top=0;left=0;bottom=0;right=0;overflow=hidden;strokeColor=#82b366;fillColor=none;" parent="ztVvOb2c4JuOCDaLwrAS-905" vertex="1">
          <mxGeometry width="135" height="27" as="geometry" />
        </mxCell>
        <mxCell id="ztVvOb2c4JuOCDaLwrAS-907" value="&lt;span&gt;{UUID}&lt;/span&gt;" style="shape=partialRectangle;html=1;whiteSpace=wrap;connectable=0;top=0;left=0;bottom=0;right=0;overflow=hidden;strokeColor=#82b366;fillColor=none;" parent="ztVvOb2c4JuOCDaLwrAS-905" vertex="1">
          <mxGeometry x="135" width="135" height="27" as="geometry" />
        </mxCell>
        <mxCell id="ztVvOb2c4JuOCDaLwrAS-908" value="&lt;span&gt;{UUID}&lt;/span&gt;" style="shape=partialRectangle;html=1;whiteSpace=wrap;connectable=0;top=0;left=0;bottom=0;right=0;overflow=hidden;strokeColor=#82b366;fillColor=none;" parent="ztVvOb2c4JuOCDaLwrAS-905" vertex="1">
          <mxGeometry x="270" width="135" height="27" as="geometry" />
        </mxCell>
        <mxCell id="ztVvOb2c4JuOCDaLwrAS-909" value="&lt;span&gt;2018-01-01 02:30&lt;/span&gt;" style="shape=partialRectangle;html=1;whiteSpace=wrap;connectable=0;top=0;left=0;bottom=0;right=0;overflow=hidden;strokeColor=#82b366;fillColor=none;" parent="ztVvOb2c4JuOCDaLwrAS-905" vertex="1">
          <mxGeometry x="405" width="133" height="27" as="geometry" />
        </mxCell>
        <mxCell id="ztVvOb2c4JuOCDaLwrAS-910" value="&lt;span&gt;2017-12-31 00:00&lt;/span&gt;" style="shape=partialRectangle;html=1;whiteSpace=wrap;connectable=0;top=0;left=0;bottom=0;right=0;overflow=hidden;strokeColor=#82b366;fillColor=none;" parent="ztVvOb2c4JuOCDaLwrAS-905" vertex="1">
          <mxGeometry x="538" width="134" height="27" as="geometry" />
        </mxCell>
        <mxCell id="2LelLOpR1p7l8fURc_7i-19" style="shape=partialRectangle;html=1;whiteSpace=wrap;connectable=0;top=0;left=0;bottom=0;right=0;overflow=hidden;strokeColor=#82b366;fillColor=none;" vertex="1" parent="ztVvOb2c4JuOCDaLwrAS-905">
          <mxGeometry x="672" width="134" height="27" as="geometry" />
        </mxCell>
        <mxCell id="2LelLOpR1p7l8fURc_7i-12" style="shape=partialRectangle;html=1;whiteSpace=wrap;connectable=0;top=0;left=0;bottom=0;right=0;overflow=hidden;strokeColor=#82b366;fillColor=none;" vertex="1" parent="ztVvOb2c4JuOCDaLwrAS-905">
          <mxGeometry x="806" width="134" height="27" as="geometry" />
        </mxCell>
        <mxCell id="ztVvOb2c4JuOCDaLwrAS-911" value="&lt;span&gt;-100&lt;/span&gt;" style="shape=partialRectangle;html=1;whiteSpace=wrap;connectable=0;top=0;left=0;bottom=0;right=0;overflow=hidden;strokeColor=#82b366;fillColor=none;" parent="ztVvOb2c4JuOCDaLwrAS-905" vertex="1">
          <mxGeometry x="940" width="135" height="27" as="geometry" />
        </mxCell>
        <mxCell id="ztVvOb2c4JuOCDaLwrAS-960" value="&lt;h1&gt;Features&lt;/h1&gt;&lt;p&gt;Lançamentos retroativos.&lt;br&gt;&lt;/p&gt;&lt;p&gt;Lançamentos automáticos.&lt;/p&gt;&lt;div&gt;&lt;p&gt;&lt;span&gt;Inativação de lote de lançamentos.&lt;/span&gt;&lt;/p&gt;&lt;/div&gt;&lt;p&gt;Snapshots das movimentações em tempo real.&lt;/p&gt;&lt;p&gt;Snapshots dos saldos no momento da trava da empresa.&lt;/p&gt;&lt;p&gt;&lt;span&gt;Multi gaap.&lt;/span&gt;&lt;br&gt;&lt;/p&gt;" style="text;html=1;strokeColor=none;fillColor=none;spacing=5;spacingTop=-20;whiteSpace=wrap;overflow=hidden;rounded=0;" parent="1" vertex="1">
          <mxGeometry x="-780" y="240" width="520" height="210" as="geometry" />
        </mxCell>
        <mxCell id="ztVvOb2c4JuOCDaLwrAS-969" value="" style="shape=table;html=1;whiteSpace=wrap;startSize=0;container=1;collapsible=0;childLayout=tableLayout;" parent="1" vertex="1">
          <mxGeometry x="-780" width="1076" height="80" as="geometry" />
        </mxCell>
        <mxCell id="ztVvOb2c4JuOCDaLwrAS-970" value="" style="shape=partialRectangle;html=1;whiteSpace=wrap;collapsible=0;dropTarget=0;pointerEvents=0;fillColor=none;top=0;left=0;bottom=0;right=0;points=[[0,0.5],[1,0.5]];portConstraint=eastwest;" parent="ztVvOb2c4JuOCDaLwrAS-969" vertex="1">
          <mxGeometry width="1076" height="27" as="geometry" />
        </mxCell>
        <mxCell id="ztVvOb2c4JuOCDaLwrAS-971" value="transaction_id" style="shape=partialRectangle;html=1;whiteSpace=wrap;connectable=0;fillColor=none;top=0;left=0;bottom=0;right=0;overflow=hidden;" parent="ztVvOb2c4JuOCDaLwrAS-970" vertex="1">
          <mxGeometry width="136" height="27" as="geometry" />
        </mxCell>
        <mxCell id="MRXJrDMqa9VZ29TLoG-b-65" value="event_id" style="shape=partialRectangle;html=1;whiteSpace=wrap;connectable=0;fillColor=none;top=0;left=0;bottom=0;right=0;overflow=hidden;" parent="ztVvOb2c4JuOCDaLwrAS-970" vertex="1">
          <mxGeometry x="136" width="136" height="27" as="geometry" />
        </mxCell>
        <mxCell id="ztVvOb2c4JuOCDaLwrAS-972" value="&lt;span&gt;transaction_date_time&lt;/span&gt;" style="shape=partialRectangle;html=1;whiteSpace=wrap;connectable=0;fillColor=none;top=0;left=0;bottom=0;right=0;overflow=hidden;" parent="ztVvOb2c4JuOCDaLwrAS-970" vertex="1">
          <mxGeometry x="272" width="133" height="27" as="geometry" />
        </mxCell>
        <mxCell id="ztVvOb2c4JuOCDaLwrAS-973" value="&lt;span&gt;accounting_date_time&lt;/span&gt;" style="shape=partialRectangle;html=1;whiteSpace=wrap;connectable=0;fillColor=none;top=0;left=0;bottom=0;right=0;overflow=hidden;" parent="ztVvOb2c4JuOCDaLwrAS-970" vertex="1">
          <mxGeometry x="405" width="135" height="27" as="geometry" />
        </mxCell>
        <mxCell id="ztVvOb2c4JuOCDaLwrAS-974" value="debit_account_id" style="shape=partialRectangle;html=1;whiteSpace=wrap;connectable=0;fillColor=none;top=0;left=0;bottom=0;right=0;overflow=hidden;" parent="ztVvOb2c4JuOCDaLwrAS-970" vertex="1">
          <mxGeometry x="540" width="133" height="27" as="geometry" />
        </mxCell>
        <mxCell id="ztVvOb2c4JuOCDaLwrAS-975" value="credit_account_id" style="shape=partialRectangle;html=1;whiteSpace=wrap;connectable=0;fillColor=none;top=0;left=0;bottom=0;right=0;overflow=hidden;" parent="ztVvOb2c4JuOCDaLwrAS-970" vertex="1">
          <mxGeometry x="673" width="134" height="27" as="geometry" />
        </mxCell>
        <mxCell id="ztVvOb2c4JuOCDaLwrAS-976" value="amount" style="shape=partialRectangle;html=1;whiteSpace=wrap;connectable=0;fillColor=none;top=0;left=0;bottom=0;right=0;overflow=hidden;" parent="ztVvOb2c4JuOCDaLwrAS-970" vertex="1">
          <mxGeometry x="807" width="133" height="27" as="geometry" />
        </mxCell>
        <mxCell id="ztVvOb2c4JuOCDaLwrAS-977" value="status" style="shape=partialRectangle;html=1;whiteSpace=wrap;connectable=0;fillColor=none;top=0;left=0;bottom=0;right=0;overflow=hidden;" parent="ztVvOb2c4JuOCDaLwrAS-970" vertex="1">
          <mxGeometry x="940" width="136" height="27" as="geometry" />
        </mxCell>
        <mxCell id="ztVvOb2c4JuOCDaLwrAS-978" value="" style="shape=partialRectangle;html=1;whiteSpace=wrap;collapsible=0;dropTarget=0;pointerEvents=0;fillColor=none;top=0;left=0;bottom=0;right=0;points=[[0,0.5],[1,0.5]];portConstraint=eastwest;" parent="ztVvOb2c4JuOCDaLwrAS-969" vertex="1">
          <mxGeometry y="27" width="1076" height="26" as="geometry" />
        </mxCell>
        <mxCell id="ztVvOb2c4JuOCDaLwrAS-979" value="awwdasd" style="shape=partialRectangle;html=1;whiteSpace=wrap;connectable=0;top=0;left=0;bottom=0;right=0;overflow=hidden;fillColor=none;" parent="ztVvOb2c4JuOCDaLwrAS-978" vertex="1">
          <mxGeometry width="136" height="26" as="geometry" />
        </mxCell>
        <mxCell id="MRXJrDMqa9VZ29TLoG-b-66" style="shape=partialRectangle;html=1;whiteSpace=wrap;connectable=0;top=0;left=0;bottom=0;right=0;overflow=hidden;fillColor=none;" parent="ztVvOb2c4JuOCDaLwrAS-978" vertex="1">
          <mxGeometry x="136" width="136" height="26" as="geometry" />
        </mxCell>
        <mxCell id="ztVvOb2c4JuOCDaLwrAS-980" value="&lt;span&gt;2017-12-31 02:00&lt;/span&gt;" style="shape=partialRectangle;html=1;whiteSpace=wrap;connectable=0;top=0;left=0;bottom=0;right=0;overflow=hidden;fillColor=none;" parent="ztVvOb2c4JuOCDaLwrAS-978" vertex="1">
          <mxGeometry x="272" width="133" height="26" as="geometry" />
        </mxCell>
        <mxCell id="ztVvOb2c4JuOCDaLwrAS-981" value="&lt;span&gt;2017-12-31 02:00&lt;/span&gt;" style="shape=partialRectangle;html=1;whiteSpace=wrap;connectable=0;top=0;left=0;bottom=0;right=0;overflow=hidden;fillColor=none;" parent="ztVvOb2c4JuOCDaLwrAS-978" vertex="1">
          <mxGeometry x="405" width="135" height="26" as="geometry" />
        </mxCell>
        <mxCell id="ztVvOb2c4JuOCDaLwrAS-982" value="111111" style="shape=partialRectangle;html=1;whiteSpace=wrap;connectable=0;top=0;left=0;bottom=0;right=0;overflow=hidden;fillColor=none;" parent="ztVvOb2c4JuOCDaLwrAS-978" vertex="1">
          <mxGeometry x="540" width="133" height="26" as="geometry" />
        </mxCell>
        <mxCell id="ztVvOb2c4JuOCDaLwrAS-983" value="&lt;span&gt;22222&lt;/span&gt;" style="shape=partialRectangle;html=1;whiteSpace=wrap;connectable=0;top=0;left=0;bottom=0;right=0;overflow=hidden;fillColor=none;" parent="ztVvOb2c4JuOCDaLwrAS-978" vertex="1">
          <mxGeometry x="673" width="134" height="26" as="geometry" />
        </mxCell>
        <mxCell id="ztVvOb2c4JuOCDaLwrAS-984" value="100" style="shape=partialRectangle;html=1;whiteSpace=wrap;connectable=0;top=0;left=0;bottom=0;right=0;overflow=hidden;fillColor=none;" parent="ztVvOb2c4JuOCDaLwrAS-978" vertex="1">
          <mxGeometry x="807" width="133" height="26" as="geometry" />
        </mxCell>
        <mxCell id="ztVvOb2c4JuOCDaLwrAS-985" value="DONE" style="shape=partialRectangle;html=1;whiteSpace=wrap;connectable=0;top=0;left=0;bottom=0;right=0;overflow=hidden;fillColor=none;" parent="ztVvOb2c4JuOCDaLwrAS-978" vertex="1">
          <mxGeometry x="940" width="136" height="26" as="geometry" />
        </mxCell>
        <mxCell id="ztVvOb2c4JuOCDaLwrAS-986" value="" style="shape=partialRectangle;html=1;whiteSpace=wrap;collapsible=0;dropTarget=0;pointerEvents=0;fillColor=none;top=0;left=0;bottom=0;right=0;points=[[0,0.5],[1,0.5]];portConstraint=eastwest;" parent="ztVvOb2c4JuOCDaLwrAS-969" vertex="1">
          <mxGeometry y="53" width="1076" height="27" as="geometry" />
        </mxCell>
        <mxCell id="ztVvOb2c4JuOCDaLwrAS-987" value="sdwadss" style="shape=partialRectangle;html=1;whiteSpace=wrap;connectable=0;top=0;left=0;bottom=0;right=0;overflow=hidden;fillColor=none;" parent="ztVvOb2c4JuOCDaLwrAS-986" vertex="1">
          <mxGeometry width="136" height="27" as="geometry" />
        </mxCell>
        <mxCell id="MRXJrDMqa9VZ29TLoG-b-67" style="shape=partialRectangle;html=1;whiteSpace=wrap;connectable=0;top=0;left=0;bottom=0;right=0;overflow=hidden;fillColor=none;" parent="ztVvOb2c4JuOCDaLwrAS-986" vertex="1">
          <mxGeometry x="136" width="136" height="27" as="geometry" />
        </mxCell>
        <mxCell id="ztVvOb2c4JuOCDaLwrAS-988" value="&lt;span&gt;2018-01-31 00:30&lt;/span&gt;" style="shape=partialRectangle;html=1;whiteSpace=wrap;connectable=0;top=0;left=0;bottom=0;right=0;overflow=hidden;fillColor=none;" parent="ztVvOb2c4JuOCDaLwrAS-986" vertex="1">
          <mxGeometry x="272" width="133" height="27" as="geometry" />
        </mxCell>
        <mxCell id="ztVvOb2c4JuOCDaLwrAS-989" value="&lt;span&gt;2017-12-31 01:01&lt;/span&gt;" style="shape=partialRectangle;html=1;whiteSpace=wrap;connectable=0;top=0;left=0;bottom=0;right=0;overflow=hidden;fillColor=none;" parent="ztVvOb2c4JuOCDaLwrAS-986" vertex="1">
          <mxGeometry x="405" width="135" height="27" as="geometry" />
        </mxCell>
        <mxCell id="ztVvOb2c4JuOCDaLwrAS-990" value="111111" style="shape=partialRectangle;html=1;whiteSpace=wrap;connectable=0;top=0;left=0;bottom=0;right=0;overflow=hidden;fillColor=none;" parent="ztVvOb2c4JuOCDaLwrAS-986" vertex="1">
          <mxGeometry x="540" width="133" height="27" as="geometry" />
        </mxCell>
        <mxCell id="ztVvOb2c4JuOCDaLwrAS-991" value="22222" style="shape=partialRectangle;html=1;whiteSpace=wrap;connectable=0;top=0;left=0;bottom=0;right=0;overflow=hidden;fillColor=none;" parent="ztVvOb2c4JuOCDaLwrAS-986" vertex="1">
          <mxGeometry x="673" width="134" height="27" as="geometry" />
        </mxCell>
        <mxCell id="ztVvOb2c4JuOCDaLwrAS-992" value="100" style="shape=partialRectangle;html=1;whiteSpace=wrap;connectable=0;top=0;left=0;bottom=0;right=0;overflow=hidden;fillColor=none;" parent="ztVvOb2c4JuOCDaLwrAS-986" vertex="1">
          <mxGeometry x="807" width="133" height="27" as="geometry" />
        </mxCell>
        <mxCell id="ztVvOb2c4JuOCDaLwrAS-993" value="DONE" style="shape=partialRectangle;html=1;whiteSpace=wrap;connectable=0;top=0;left=0;bottom=0;right=0;overflow=hidden;fillColor=none;" parent="ztVvOb2c4JuOCDaLwrAS-986" vertex="1">
          <mxGeometry x="940" width="136" height="27" as="geometry" />
        </mxCell>
        <mxCell id="ztVvOb2c4JuOCDaLwrAS-1056" value="&lt;b&gt;AWS S3&lt;/b&gt;&lt;br&gt;Bucket Raw&lt;br&gt;Parquet Format&lt;br&gt;Partitioned by Year-Month&lt;br&gt;Accounting Monthly Balance" style="points=[[0,0,0],[0.25,0,0],[0.5,0,0],[0.75,0,0],[1,0,0],[0,1,0],[0.25,1,0],[0.5,1,0],[0.75,1,0],[1,1,0],[0,0.25,0],[0,0.5,0],[0,0.75,0],[1,0.25,0],[1,0.5,0],[1,0.75,0]];outlineConnect=0;fontColor=#232F3E;gradientColor=#60A337;gradientDirection=north;fillColor=#277116;strokeColor=#ffffff;dashed=0;verticalLabelPosition=bottom;verticalAlign=top;align=center;html=1;fontSize=12;fontStyle=0;aspect=fixed;shape=mxgraph.aws4.resourceIcon;resIcon=mxgraph.aws4.s3;" parent="1" vertex="1">
          <mxGeometry x="1739" y="670" width="78" height="78" as="geometry" />
        </mxCell>
        <mxCell id="ztVvOb2c4JuOCDaLwrAS-1188" style="edgeStyle=orthogonalEdgeStyle;rounded=0;orthogonalLoop=1;jettySize=auto;html=1;" parent="1" target="ztVvOb2c4JuOCDaLwrAS-1186" edge="1">
          <mxGeometry relative="1" as="geometry">
            <mxPoint x="2180" y="630" as="sourcePoint" />
            <Array as="points">
              <mxPoint x="2180" y="640" />
              <mxPoint x="1568" y="640" />
            </Array>
          </mxGeometry>
        </mxCell>
        <mxCell id="ztVvOb2c4JuOCDaLwrAS-994" value="" style="shape=table;html=1;whiteSpace=wrap;startSize=0;container=1;collapsible=0;childLayout=tableLayout;" parent="1" vertex="1">
          <mxGeometry x="2281" y="488.5" width="972" height="79" as="geometry" />
        </mxCell>
        <mxCell id="ztVvOb2c4JuOCDaLwrAS-995" value="" style="shape=partialRectangle;html=1;whiteSpace=wrap;collapsible=0;dropTarget=0;pointerEvents=0;fillColor=none;top=0;left=0;bottom=0;right=0;points=[[0,0.5],[1,0.5]];portConstraint=eastwest;" parent="ztVvOb2c4JuOCDaLwrAS-994" vertex="1">
          <mxGeometry width="972" height="27" as="geometry" />
        </mxCell>
        <mxCell id="ztVvOb2c4JuOCDaLwrAS-1022" value="accounting_date" style="shape=partialRectangle;html=1;whiteSpace=wrap;connectable=0;fillColor=none;top=0;left=0;bottom=0;right=0;overflow=hidden;" parent="ztVvOb2c4JuOCDaLwrAS-995" vertex="1">
          <mxGeometry width="122" height="27" as="geometry" />
        </mxCell>
        <mxCell id="ztVvOb2c4JuOCDaLwrAS-1025" value="company_id" style="shape=partialRectangle;html=1;whiteSpace=wrap;connectable=0;fillColor=none;top=0;left=0;bottom=0;right=0;overflow=hidden;" parent="ztVvOb2c4JuOCDaLwrAS-995" vertex="1">
          <mxGeometry x="122" width="121" height="27" as="geometry" />
        </mxCell>
        <mxCell id="MRXJrDMqa9VZ29TLoG-b-1" value="gaap_id" style="shape=partialRectangle;html=1;whiteSpace=wrap;connectable=0;fillColor=none;top=0;left=0;bottom=0;right=0;overflow=hidden;" parent="ztVvOb2c4JuOCDaLwrAS-995" vertex="1">
          <mxGeometry x="243" width="121" height="27" as="geometry" />
        </mxCell>
        <mxCell id="2LelLOpR1p7l8fURc_7i-23" value="balance_version" style="shape=partialRectangle;html=1;whiteSpace=wrap;connectable=0;fillColor=none;top=0;left=0;bottom=0;right=0;overflow=hidden;" vertex="1" parent="ztVvOb2c4JuOCDaLwrAS-995">
          <mxGeometry x="364" width="121" height="27" as="geometry" />
        </mxCell>
        <mxCell id="ztVvOb2c4JuOCDaLwrAS-997" value="&lt;span&gt;account_id&lt;/span&gt;" style="shape=partialRectangle;html=1;whiteSpace=wrap;connectable=0;fillColor=none;top=0;left=0;bottom=0;right=0;overflow=hidden;" parent="ztVvOb2c4JuOCDaLwrAS-995" vertex="1">
          <mxGeometry x="485" width="121" height="27" as="geometry" />
        </mxCell>
        <mxCell id="MRXJrDMqa9VZ29TLoG-b-72" value="debit" style="shape=partialRectangle;html=1;whiteSpace=wrap;connectable=0;fillColor=none;top=0;left=0;bottom=0;right=0;overflow=hidden;" parent="ztVvOb2c4JuOCDaLwrAS-995" vertex="1">
          <mxGeometry x="606" width="121" height="27" as="geometry" />
        </mxCell>
        <mxCell id="MRXJrDMqa9VZ29TLoG-b-75" value="credit" style="shape=partialRectangle;html=1;whiteSpace=wrap;connectable=0;fillColor=none;top=0;left=0;bottom=0;right=0;overflow=hidden;" parent="ztVvOb2c4JuOCDaLwrAS-995" vertex="1">
          <mxGeometry x="727" width="121" height="27" as="geometry" />
        </mxCell>
        <mxCell id="ztVvOb2c4JuOCDaLwrAS-998" value="&lt;span&gt;movement&lt;/span&gt;" style="shape=partialRectangle;html=1;whiteSpace=wrap;connectable=0;fillColor=none;top=0;left=0;bottom=0;right=0;overflow=hidden;" parent="ztVvOb2c4JuOCDaLwrAS-995" vertex="1">
          <mxGeometry x="848" width="124" height="27" as="geometry" />
        </mxCell>
        <mxCell id="ztVvOb2c4JuOCDaLwrAS-1003" value="" style="shape=partialRectangle;html=1;whiteSpace=wrap;collapsible=0;dropTarget=0;pointerEvents=0;fillColor=none;top=0;left=0;bottom=0;right=0;points=[[0,0.5],[1,0.5]];portConstraint=eastwest;" parent="ztVvOb2c4JuOCDaLwrAS-994" vertex="1">
          <mxGeometry y="27" width="972" height="26" as="geometry" />
        </mxCell>
        <mxCell id="ztVvOb2c4JuOCDaLwrAS-1023" value="2017-12-31" style="shape=partialRectangle;html=1;whiteSpace=wrap;connectable=0;top=0;left=0;bottom=0;right=0;overflow=hidden;fillColor=none;" parent="ztVvOb2c4JuOCDaLwrAS-1003" vertex="1">
          <mxGeometry width="122" height="26" as="geometry" />
        </mxCell>
        <mxCell id="ztVvOb2c4JuOCDaLwrAS-1026" value="341" style="shape=partialRectangle;html=1;whiteSpace=wrap;connectable=0;top=0;left=0;bottom=0;right=0;overflow=hidden;fillColor=none;" parent="ztVvOb2c4JuOCDaLwrAS-1003" vertex="1">
          <mxGeometry x="122" width="121" height="26" as="geometry" />
        </mxCell>
        <mxCell id="MRXJrDMqa9VZ29TLoG-b-2" value="1" style="shape=partialRectangle;html=1;whiteSpace=wrap;connectable=0;top=0;left=0;bottom=0;right=0;overflow=hidden;fillColor=none;" parent="ztVvOb2c4JuOCDaLwrAS-1003" vertex="1">
          <mxGeometry x="243" width="121" height="26" as="geometry" />
        </mxCell>
        <mxCell id="2LelLOpR1p7l8fURc_7i-24" value="1" style="shape=partialRectangle;html=1;whiteSpace=wrap;connectable=0;top=0;left=0;bottom=0;right=0;overflow=hidden;fillColor=none;" vertex="1" parent="ztVvOb2c4JuOCDaLwrAS-1003">
          <mxGeometry x="364" width="121" height="26" as="geometry" />
        </mxCell>
        <mxCell id="ztVvOb2c4JuOCDaLwrAS-1005" value="111111" style="shape=partialRectangle;html=1;whiteSpace=wrap;connectable=0;top=0;left=0;bottom=0;right=0;overflow=hidden;fillColor=none;" parent="ztVvOb2c4JuOCDaLwrAS-1003" vertex="1">
          <mxGeometry x="485" width="121" height="26" as="geometry" />
        </mxCell>
        <mxCell id="MRXJrDMqa9VZ29TLoG-b-73" value="100" style="shape=partialRectangle;html=1;whiteSpace=wrap;connectable=0;top=0;left=0;bottom=0;right=0;overflow=hidden;fillColor=none;" parent="ztVvOb2c4JuOCDaLwrAS-1003" vertex="1">
          <mxGeometry x="606" width="121" height="26" as="geometry" />
        </mxCell>
        <mxCell id="MRXJrDMqa9VZ29TLoG-b-76" value="0" style="shape=partialRectangle;html=1;whiteSpace=wrap;connectable=0;top=0;left=0;bottom=0;right=0;overflow=hidden;fillColor=none;" parent="ztVvOb2c4JuOCDaLwrAS-1003" vertex="1">
          <mxGeometry x="727" width="121" height="26" as="geometry" />
        </mxCell>
        <mxCell id="ztVvOb2c4JuOCDaLwrAS-1006" value="-100" style="shape=partialRectangle;html=1;whiteSpace=wrap;connectable=0;top=0;left=0;bottom=0;right=0;overflow=hidden;fillColor=none;" parent="ztVvOb2c4JuOCDaLwrAS-1003" vertex="1">
          <mxGeometry x="848" width="124" height="26" as="geometry" />
        </mxCell>
        <mxCell id="ztVvOb2c4JuOCDaLwrAS-1031" style="shape=partialRectangle;html=1;whiteSpace=wrap;collapsible=0;dropTarget=0;pointerEvents=0;fillColor=none;top=0;left=0;bottom=0;right=0;points=[[0,0.5],[1,0.5]];portConstraint=eastwest;" parent="ztVvOb2c4JuOCDaLwrAS-994" vertex="1">
          <mxGeometry y="53" width="972" height="26" as="geometry" />
        </mxCell>
        <mxCell id="ztVvOb2c4JuOCDaLwrAS-1032" value="2017-12-31" style="shape=partialRectangle;html=1;whiteSpace=wrap;connectable=0;top=0;left=0;bottom=0;right=0;overflow=hidden;fillColor=none;" parent="ztVvOb2c4JuOCDaLwrAS-1031" vertex="1">
          <mxGeometry width="122" height="26" as="geometry" />
        </mxCell>
        <mxCell id="ztVvOb2c4JuOCDaLwrAS-1033" value="341" style="shape=partialRectangle;html=1;whiteSpace=wrap;connectable=0;top=0;left=0;bottom=0;right=0;overflow=hidden;fillColor=none;" parent="ztVvOb2c4JuOCDaLwrAS-1031" vertex="1">
          <mxGeometry x="122" width="121" height="26" as="geometry" />
        </mxCell>
        <mxCell id="MRXJrDMqa9VZ29TLoG-b-3" value="2" style="shape=partialRectangle;html=1;whiteSpace=wrap;connectable=0;top=0;left=0;bottom=0;right=0;overflow=hidden;fillColor=none;" parent="ztVvOb2c4JuOCDaLwrAS-1031" vertex="1">
          <mxGeometry x="243" width="121" height="26" as="geometry" />
        </mxCell>
        <mxCell id="2LelLOpR1p7l8fURc_7i-25" value="1" style="shape=partialRectangle;html=1;whiteSpace=wrap;connectable=0;top=0;left=0;bottom=0;right=0;overflow=hidden;fillColor=none;" vertex="1" parent="ztVvOb2c4JuOCDaLwrAS-1031">
          <mxGeometry x="364" width="121" height="26" as="geometry" />
        </mxCell>
        <mxCell id="ztVvOb2c4JuOCDaLwrAS-1035" value="&lt;span&gt;111111&lt;/span&gt;" style="shape=partialRectangle;html=1;whiteSpace=wrap;connectable=0;top=0;left=0;bottom=0;right=0;overflow=hidden;fillColor=none;" parent="ztVvOb2c4JuOCDaLwrAS-1031" vertex="1">
          <mxGeometry x="485" width="121" height="26" as="geometry" />
        </mxCell>
        <mxCell id="MRXJrDMqa9VZ29TLoG-b-74" value="100" style="shape=partialRectangle;html=1;whiteSpace=wrap;connectable=0;top=0;left=0;bottom=0;right=0;overflow=hidden;fillColor=none;" parent="ztVvOb2c4JuOCDaLwrAS-1031" vertex="1">
          <mxGeometry x="606" width="121" height="26" as="geometry" />
        </mxCell>
        <mxCell id="MRXJrDMqa9VZ29TLoG-b-77" value="0" style="shape=partialRectangle;html=1;whiteSpace=wrap;connectable=0;top=0;left=0;bottom=0;right=0;overflow=hidden;fillColor=none;" parent="ztVvOb2c4JuOCDaLwrAS-1031" vertex="1">
          <mxGeometry x="727" width="121" height="26" as="geometry" />
        </mxCell>
        <mxCell id="ztVvOb2c4JuOCDaLwrAS-1036" value="-100" style="shape=partialRectangle;html=1;whiteSpace=wrap;connectable=0;top=0;left=0;bottom=0;right=0;overflow=hidden;fillColor=none;" parent="ztVvOb2c4JuOCDaLwrAS-1031" vertex="1">
          <mxGeometry x="848" width="124" height="26" as="geometry" />
        </mxCell>
        <mxCell id="ztVvOb2c4JuOCDaLwrAS-1037" value="" style="shape=table;html=1;whiteSpace=wrap;startSize=0;container=1;collapsible=0;childLayout=tableLayout;" parent="1" vertex="1">
          <mxGeometry x="2281" y="656.5" width="729" height="105" as="geometry" />
        </mxCell>
        <mxCell id="ztVvOb2c4JuOCDaLwrAS-1038" value="" style="shape=partialRectangle;html=1;whiteSpace=wrap;collapsible=0;dropTarget=0;pointerEvents=0;fillColor=none;top=0;left=0;bottom=0;right=0;points=[[0,0.5],[1,0.5]];portConstraint=eastwest;" parent="ztVvOb2c4JuOCDaLwrAS-1037" vertex="1">
          <mxGeometry width="729" height="27" as="geometry" />
        </mxCell>
        <mxCell id="ztVvOb2c4JuOCDaLwrAS-1039" value="accounting_period" style="shape=partialRectangle;html=1;whiteSpace=wrap;connectable=0;fillColor=none;top=0;left=0;bottom=0;right=0;overflow=hidden;" parent="ztVvOb2c4JuOCDaLwrAS-1038" vertex="1">
          <mxGeometry width="121" height="27" as="geometry" />
        </mxCell>
        <mxCell id="ztVvOb2c4JuOCDaLwrAS-1206" value="company_id" style="shape=partialRectangle;html=1;whiteSpace=wrap;connectable=0;fillColor=none;top=0;left=0;bottom=0;right=0;overflow=hidden;" parent="ztVvOb2c4JuOCDaLwrAS-1038" vertex="1">
          <mxGeometry x="121" width="121" height="27" as="geometry" />
        </mxCell>
        <mxCell id="MRXJrDMqa9VZ29TLoG-b-4" value="gaap_id" style="shape=partialRectangle;html=1;whiteSpace=wrap;connectable=0;fillColor=none;top=0;left=0;bottom=0;right=0;overflow=hidden;" parent="ztVvOb2c4JuOCDaLwrAS-1038" vertex="1">
          <mxGeometry x="242" width="122" height="27" as="geometry" />
        </mxCell>
        <mxCell id="2LelLOpR1p7l8fURc_7i-26" value="balance_version" style="shape=partialRectangle;html=1;whiteSpace=wrap;connectable=0;fillColor=none;top=0;left=0;bottom=0;right=0;overflow=hidden;" vertex="1" parent="ztVvOb2c4JuOCDaLwrAS-1038">
          <mxGeometry x="364" width="121" height="27" as="geometry" />
        </mxCell>
        <mxCell id="ztVvOb2c4JuOCDaLwrAS-1042" value="&lt;span&gt;account_id&lt;/span&gt;" style="shape=partialRectangle;html=1;whiteSpace=wrap;connectable=0;fillColor=none;top=0;left=0;bottom=0;right=0;overflow=hidden;" parent="ztVvOb2c4JuOCDaLwrAS-1038" vertex="1">
          <mxGeometry x="485" width="120" height="27" as="geometry" />
        </mxCell>
        <mxCell id="ztVvOb2c4JuOCDaLwrAS-1043" value="&lt;span&gt;balance&lt;/span&gt;" style="shape=partialRectangle;html=1;whiteSpace=wrap;connectable=0;fillColor=none;top=0;left=0;bottom=0;right=0;overflow=hidden;" parent="ztVvOb2c4JuOCDaLwrAS-1038" vertex="1">
          <mxGeometry x="605" width="124" height="27" as="geometry" />
        </mxCell>
        <mxCell id="MRXJrDMqa9VZ29TLoG-b-84" style="shape=partialRectangle;html=1;whiteSpace=wrap;collapsible=0;dropTarget=0;pointerEvents=0;fillColor=none;top=0;left=0;bottom=0;right=0;points=[[0,0.5],[1,0.5]];portConstraint=eastwest;" parent="ztVvOb2c4JuOCDaLwrAS-1037" vertex="1">
          <mxGeometry y="27" width="729" height="26" as="geometry" />
        </mxCell>
        <mxCell id="MRXJrDMqa9VZ29TLoG-b-85" value="2017-11" style="shape=partialRectangle;html=1;whiteSpace=wrap;connectable=0;top=0;left=0;bottom=0;right=0;overflow=hidden;fillColor=none;" parent="MRXJrDMqa9VZ29TLoG-b-84" vertex="1">
          <mxGeometry width="121" height="26" as="geometry" />
        </mxCell>
        <mxCell id="MRXJrDMqa9VZ29TLoG-b-86" value="&lt;span&gt;341&lt;/span&gt;" style="shape=partialRectangle;html=1;whiteSpace=wrap;connectable=0;top=0;left=0;bottom=0;right=0;overflow=hidden;fillColor=none;" parent="MRXJrDMqa9VZ29TLoG-b-84" vertex="1">
          <mxGeometry x="121" width="121" height="26" as="geometry" />
        </mxCell>
        <mxCell id="MRXJrDMqa9VZ29TLoG-b-87" value="1" style="shape=partialRectangle;html=1;whiteSpace=wrap;connectable=0;top=0;left=0;bottom=0;right=0;overflow=hidden;fillColor=none;" parent="MRXJrDMqa9VZ29TLoG-b-84" vertex="1">
          <mxGeometry x="242" width="122" height="26" as="geometry" />
        </mxCell>
        <mxCell id="2LelLOpR1p7l8fURc_7i-27" value="1" style="shape=partialRectangle;html=1;whiteSpace=wrap;connectable=0;top=0;left=0;bottom=0;right=0;overflow=hidden;fillColor=none;" vertex="1" parent="MRXJrDMqa9VZ29TLoG-b-84">
          <mxGeometry x="364" width="121" height="26" as="geometry" />
        </mxCell>
        <mxCell id="MRXJrDMqa9VZ29TLoG-b-88" value="&lt;span&gt;111111&lt;/span&gt;" style="shape=partialRectangle;html=1;whiteSpace=wrap;connectable=0;top=0;left=0;bottom=0;right=0;overflow=hidden;fillColor=none;" parent="MRXJrDMqa9VZ29TLoG-b-84" vertex="1">
          <mxGeometry x="485" width="120" height="26" as="geometry" />
        </mxCell>
        <mxCell id="MRXJrDMqa9VZ29TLoG-b-89" value="100" style="shape=partialRectangle;html=1;whiteSpace=wrap;connectable=0;top=0;left=0;bottom=0;right=0;overflow=hidden;fillColor=none;" parent="MRXJrDMqa9VZ29TLoG-b-84" vertex="1">
          <mxGeometry x="605" width="124" height="26" as="geometry" />
        </mxCell>
        <mxCell id="ztVvOb2c4JuOCDaLwrAS-1044" value="" style="shape=partialRectangle;html=1;whiteSpace=wrap;collapsible=0;dropTarget=0;pointerEvents=0;fillColor=none;top=0;left=0;bottom=0;right=0;points=[[0,0.5],[1,0.5]];portConstraint=eastwest;" parent="ztVvOb2c4JuOCDaLwrAS-1037" vertex="1">
          <mxGeometry y="53" width="729" height="26" as="geometry" />
        </mxCell>
        <mxCell id="ztVvOb2c4JuOCDaLwrAS-1045" value="2017-12" style="shape=partialRectangle;html=1;whiteSpace=wrap;connectable=0;top=0;left=0;bottom=0;right=0;overflow=hidden;fillColor=none;" parent="ztVvOb2c4JuOCDaLwrAS-1044" vertex="1">
          <mxGeometry width="121" height="26" as="geometry" />
        </mxCell>
        <mxCell id="ztVvOb2c4JuOCDaLwrAS-1207" value="341" style="shape=partialRectangle;html=1;whiteSpace=wrap;connectable=0;top=0;left=0;bottom=0;right=0;overflow=hidden;fillColor=none;" parent="ztVvOb2c4JuOCDaLwrAS-1044" vertex="1">
          <mxGeometry x="121" width="121" height="26" as="geometry" />
        </mxCell>
        <mxCell id="MRXJrDMqa9VZ29TLoG-b-5" value="1" style="shape=partialRectangle;html=1;whiteSpace=wrap;connectable=0;top=0;left=0;bottom=0;right=0;overflow=hidden;fillColor=none;" parent="ztVvOb2c4JuOCDaLwrAS-1044" vertex="1">
          <mxGeometry x="242" width="122" height="26" as="geometry" />
        </mxCell>
        <mxCell id="2LelLOpR1p7l8fURc_7i-28" value="1" style="shape=partialRectangle;html=1;whiteSpace=wrap;connectable=0;top=0;left=0;bottom=0;right=0;overflow=hidden;fillColor=none;" vertex="1" parent="ztVvOb2c4JuOCDaLwrAS-1044">
          <mxGeometry x="364" width="121" height="26" as="geometry" />
        </mxCell>
        <mxCell id="ztVvOb2c4JuOCDaLwrAS-1048" value="111111" style="shape=partialRectangle;html=1;whiteSpace=wrap;connectable=0;top=0;left=0;bottom=0;right=0;overflow=hidden;fillColor=none;" parent="ztVvOb2c4JuOCDaLwrAS-1044" vertex="1">
          <mxGeometry x="485" width="120" height="26" as="geometry" />
        </mxCell>
        <mxCell id="ztVvOb2c4JuOCDaLwrAS-1049" value="0" style="shape=partialRectangle;html=1;whiteSpace=wrap;connectable=0;top=0;left=0;bottom=0;right=0;overflow=hidden;fillColor=none;" parent="ztVvOb2c4JuOCDaLwrAS-1044" vertex="1">
          <mxGeometry x="605" width="124" height="26" as="geometry" />
        </mxCell>
        <mxCell id="MRXJrDMqa9VZ29TLoG-b-96" style="shape=partialRectangle;html=1;whiteSpace=wrap;collapsible=0;dropTarget=0;pointerEvents=0;fillColor=none;top=0;left=0;bottom=0;right=0;points=[[0,0.5],[1,0.5]];portConstraint=eastwest;" parent="ztVvOb2c4JuOCDaLwrAS-1037" vertex="1">
          <mxGeometry y="79" width="729" height="26" as="geometry" />
        </mxCell>
        <mxCell id="MRXJrDMqa9VZ29TLoG-b-97" value="&lt;span&gt;2017-12&lt;/span&gt;" style="shape=partialRectangle;html=1;whiteSpace=wrap;connectable=0;top=0;left=0;bottom=0;right=0;overflow=hidden;fillColor=none;" parent="MRXJrDMqa9VZ29TLoG-b-96" vertex="1">
          <mxGeometry width="121" height="26" as="geometry" />
        </mxCell>
        <mxCell id="MRXJrDMqa9VZ29TLoG-b-98" value="&lt;span&gt;341&lt;/span&gt;" style="shape=partialRectangle;html=1;whiteSpace=wrap;connectable=0;top=0;left=0;bottom=0;right=0;overflow=hidden;fillColor=none;" parent="MRXJrDMqa9VZ29TLoG-b-96" vertex="1">
          <mxGeometry x="121" width="121" height="26" as="geometry" />
        </mxCell>
        <mxCell id="MRXJrDMqa9VZ29TLoG-b-99" value="&lt;span&gt;2&lt;/span&gt;" style="shape=partialRectangle;html=1;whiteSpace=wrap;connectable=0;top=0;left=0;bottom=0;right=0;overflow=hidden;fillColor=none;" parent="MRXJrDMqa9VZ29TLoG-b-96" vertex="1">
          <mxGeometry x="242" width="122" height="26" as="geometry" />
        </mxCell>
        <mxCell id="2LelLOpR1p7l8fURc_7i-29" value="1" style="shape=partialRectangle;html=1;whiteSpace=wrap;connectable=0;top=0;left=0;bottom=0;right=0;overflow=hidden;fillColor=none;" vertex="1" parent="MRXJrDMqa9VZ29TLoG-b-96">
          <mxGeometry x="364" width="121" height="26" as="geometry" />
        </mxCell>
        <mxCell id="MRXJrDMqa9VZ29TLoG-b-100" value="111111" style="shape=partialRectangle;html=1;whiteSpace=wrap;connectable=0;top=0;left=0;bottom=0;right=0;overflow=hidden;fillColor=none;" parent="MRXJrDMqa9VZ29TLoG-b-96" vertex="1">
          <mxGeometry x="485" width="120" height="26" as="geometry" />
        </mxCell>
        <mxCell id="MRXJrDMqa9VZ29TLoG-b-101" value="-100" style="shape=partialRectangle;html=1;whiteSpace=wrap;connectable=0;top=0;left=0;bottom=0;right=0;overflow=hidden;fillColor=none;" parent="MRXJrDMqa9VZ29TLoG-b-96" vertex="1">
          <mxGeometry x="605" width="124" height="26" as="geometry" />
        </mxCell>
        <mxCell id="ztVvOb2c4JuOCDaLwrAS-1084" style="edgeStyle=orthogonalEdgeStyle;rounded=0;orthogonalLoop=1;jettySize=auto;html=1;exitX=1;exitY=0.5;exitDx=0;exitDy=0;exitPerimeter=0;entryX=-0.001;entryY=0.988;entryDx=0;entryDy=0;entryPerimeter=0;" parent="1" source="MRXJrDMqa9VZ29TLoG-b-26" target="ztVvOb2c4JuOCDaLwrAS-1066" edge="1">
          <mxGeometry relative="1" as="geometry">
            <mxPoint x="1840" y="920" as="targetPoint" />
            <Array as="points">
              <mxPoint x="1780" y="909" />
              <mxPoint x="1780" y="910" />
            </Array>
          </mxGeometry>
        </mxCell>
        <mxCell id="MRXJrDMqa9VZ29TLoG-b-28" value="&amp;nbsp;Trial Balance Sheet&amp;nbsp;" style="edgeLabel;html=1;align=center;verticalAlign=middle;resizable=0;points=[];" parent="ztVvOb2c4JuOCDaLwrAS-1084" vertex="1" connectable="0">
          <mxGeometry x="0.751" relative="1" as="geometry">
            <mxPoint x="-103" y="-1" as="offset" />
          </mxGeometry>
        </mxCell>
        <mxCell id="ztVvOb2c4JuOCDaLwrAS-1065" value="" style="shape=table;html=1;whiteSpace=wrap;startSize=0;container=1;collapsible=0;childLayout=tableLayout;" parent="1" vertex="1">
          <mxGeometry x="1879" y="883.25" width="961" height="51.5" as="geometry" />
        </mxCell>
        <mxCell id="ztVvOb2c4JuOCDaLwrAS-1066" value="" style="shape=partialRectangle;html=1;whiteSpace=wrap;collapsible=0;dropTarget=0;pointerEvents=0;fillColor=none;top=0;left=0;bottom=0;right=0;points=[[0,0.5],[1,0.5]];portConstraint=eastwest;" parent="ztVvOb2c4JuOCDaLwrAS-1065" vertex="1">
          <mxGeometry width="961" height="27" as="geometry" />
        </mxCell>
        <mxCell id="ztVvOb2c4JuOCDaLwrAS-1198" value="accounting_period" style="shape=partialRectangle;html=1;whiteSpace=wrap;connectable=0;fillColor=none;top=0;left=0;bottom=0;right=0;overflow=hidden;" parent="ztVvOb2c4JuOCDaLwrAS-1066" vertex="1">
          <mxGeometry width="106" height="27" as="geometry" />
        </mxCell>
        <mxCell id="MRXJrDMqa9VZ29TLoG-b-6" value="company_id" style="shape=partialRectangle;html=1;whiteSpace=wrap;connectable=0;fillColor=none;top=0;left=0;bottom=0;right=0;overflow=hidden;" parent="ztVvOb2c4JuOCDaLwrAS-1066" vertex="1">
          <mxGeometry x="106" width="106" height="27" as="geometry" />
        </mxCell>
        <mxCell id="MRXJrDMqa9VZ29TLoG-b-8" value="gaap_id" style="shape=partialRectangle;html=1;whiteSpace=wrap;connectable=0;fillColor=none;top=0;left=0;bottom=0;right=0;overflow=hidden;" parent="ztVvOb2c4JuOCDaLwrAS-1066" vertex="1">
          <mxGeometry x="212" width="106" height="27" as="geometry" />
        </mxCell>
        <mxCell id="ztVvOb2c4JuOCDaLwrAS-1067" value="account_id" style="shape=partialRectangle;html=1;whiteSpace=wrap;connectable=0;fillColor=none;top=0;left=0;bottom=0;right=0;overflow=hidden;" parent="ztVvOb2c4JuOCDaLwrAS-1066" vertex="1">
          <mxGeometry x="318" width="106" height="27" as="geometry" />
        </mxCell>
        <mxCell id="ztVvOb2c4JuOCDaLwrAS-1094" value="account_name" style="shape=partialRectangle;html=1;whiteSpace=wrap;connectable=0;fillColor=none;top=0;left=0;bottom=0;right=0;overflow=hidden;" parent="ztVvOb2c4JuOCDaLwrAS-1066" vertex="1">
          <mxGeometry x="424" width="105" height="27" as="geometry" />
        </mxCell>
        <mxCell id="ztVvOb2c4JuOCDaLwrAS-1071" value="initial balance" style="shape=partialRectangle;html=1;whiteSpace=wrap;connectable=0;fillColor=none;top=0;left=0;bottom=0;right=0;overflow=hidden;" parent="ztVvOb2c4JuOCDaLwrAS-1066" vertex="1">
          <mxGeometry x="529" width="108" height="27" as="geometry" />
        </mxCell>
        <mxCell id="MRXJrDMqa9VZ29TLoG-b-19" value="debit" style="shape=partialRectangle;html=1;whiteSpace=wrap;connectable=0;fillColor=none;top=0;left=0;bottom=0;right=0;overflow=hidden;" parent="ztVvOb2c4JuOCDaLwrAS-1066" vertex="1">
          <mxGeometry x="637" width="108" height="27" as="geometry" />
        </mxCell>
        <mxCell id="ztVvOb2c4JuOCDaLwrAS-1091" value="credit" style="shape=partialRectangle;html=1;whiteSpace=wrap;connectable=0;fillColor=none;top=0;left=0;bottom=0;right=0;overflow=hidden;" parent="ztVvOb2c4JuOCDaLwrAS-1066" vertex="1">
          <mxGeometry x="745" width="108" height="27" as="geometry" />
        </mxCell>
        <mxCell id="ztVvOb2c4JuOCDaLwrAS-1088" value="final balance" style="shape=partialRectangle;html=1;whiteSpace=wrap;connectable=0;fillColor=none;top=0;left=0;bottom=0;right=0;overflow=hidden;" parent="ztVvOb2c4JuOCDaLwrAS-1066" vertex="1">
          <mxGeometry x="853" width="108" height="27" as="geometry" />
        </mxCell>
        <mxCell id="ztVvOb2c4JuOCDaLwrAS-1072" value="" style="shape=partialRectangle;html=1;whiteSpace=wrap;collapsible=0;dropTarget=0;pointerEvents=0;fillColor=none;top=0;left=0;bottom=0;right=0;points=[[0,0.5],[1,0.5]];portConstraint=eastwest;" parent="ztVvOb2c4JuOCDaLwrAS-1065" vertex="1">
          <mxGeometry y="27" width="961" height="25" as="geometry" />
        </mxCell>
        <mxCell id="ztVvOb2c4JuOCDaLwrAS-1199" value="2017-12" style="shape=partialRectangle;html=1;whiteSpace=wrap;connectable=0;top=0;left=0;bottom=0;right=0;overflow=hidden;fillColor=none;" parent="ztVvOb2c4JuOCDaLwrAS-1072" vertex="1">
          <mxGeometry width="106" height="25" as="geometry" />
        </mxCell>
        <mxCell id="MRXJrDMqa9VZ29TLoG-b-7" value="341" style="shape=partialRectangle;html=1;whiteSpace=wrap;connectable=0;top=0;left=0;bottom=0;right=0;overflow=hidden;fillColor=none;" parent="ztVvOb2c4JuOCDaLwrAS-1072" vertex="1">
          <mxGeometry x="106" width="106" height="25" as="geometry" />
        </mxCell>
        <mxCell id="MRXJrDMqa9VZ29TLoG-b-9" value="2" style="shape=partialRectangle;html=1;whiteSpace=wrap;connectable=0;top=0;left=0;bottom=0;right=0;overflow=hidden;fillColor=none;" parent="ztVvOb2c4JuOCDaLwrAS-1072" vertex="1">
          <mxGeometry x="212" width="106" height="25" as="geometry" />
        </mxCell>
        <mxCell id="ztVvOb2c4JuOCDaLwrAS-1073" value="111111" style="shape=partialRectangle;html=1;whiteSpace=wrap;connectable=0;top=0;left=0;bottom=0;right=0;overflow=hidden;fillColor=none;" parent="ztVvOb2c4JuOCDaLwrAS-1072" vertex="1">
          <mxGeometry x="318" width="106" height="25" as="geometry" />
        </mxCell>
        <mxCell id="ztVvOb2c4JuOCDaLwrAS-1095" value="CAIXA" style="shape=partialRectangle;html=1;whiteSpace=wrap;connectable=0;top=0;left=0;bottom=0;right=0;overflow=hidden;fillColor=none;" parent="ztVvOb2c4JuOCDaLwrAS-1072" vertex="1">
          <mxGeometry x="424" width="105" height="25" as="geometry" />
        </mxCell>
        <mxCell id="ztVvOb2c4JuOCDaLwrAS-1077" value="500" style="shape=partialRectangle;html=1;whiteSpace=wrap;connectable=0;top=0;left=0;bottom=0;right=0;overflow=hidden;fillColor=none;" parent="ztVvOb2c4JuOCDaLwrAS-1072" vertex="1">
          <mxGeometry x="529" width="108" height="25" as="geometry" />
        </mxCell>
        <mxCell id="MRXJrDMqa9VZ29TLoG-b-20" value="0" style="shape=partialRectangle;html=1;whiteSpace=wrap;connectable=0;top=0;left=0;bottom=0;right=0;overflow=hidden;fillColor=none;" parent="ztVvOb2c4JuOCDaLwrAS-1072" vertex="1">
          <mxGeometry x="637" width="108" height="25" as="geometry" />
        </mxCell>
        <mxCell id="ztVvOb2c4JuOCDaLwrAS-1092" value="700" style="shape=partialRectangle;html=1;whiteSpace=wrap;connectable=0;top=0;left=0;bottom=0;right=0;overflow=hidden;fillColor=none;" parent="ztVvOb2c4JuOCDaLwrAS-1072" vertex="1">
          <mxGeometry x="745" width="108" height="25" as="geometry" />
        </mxCell>
        <mxCell id="ztVvOb2c4JuOCDaLwrAS-1089" value="1200" style="shape=partialRectangle;html=1;whiteSpace=wrap;connectable=0;top=0;left=0;bottom=0;right=0;overflow=hidden;fillColor=none;" parent="ztVvOb2c4JuOCDaLwrAS-1072" vertex="1">
          <mxGeometry x="853" width="108" height="25" as="geometry" />
        </mxCell>
        <mxCell id="ztVvOb2c4JuOCDaLwrAS-1127" value="EVERYDAY 1:00 AM" style="shape=image;html=1;verticalAlign=bottom;verticalLabelPosition=top;labelBackgroundColor=#ffffff;imageAspect=0;aspect=fixed;image=https://cdn3.iconfinder.com/data/icons/material-inspired-2/16/27-128.png;labelPosition=center;align=center;" parent="1" vertex="1">
          <mxGeometry x="1790" y="1241" width="42" height="42" as="geometry" />
        </mxCell>
        <mxCell id="ztVvOb2c4JuOCDaLwrAS-1183" style="edgeStyle=orthogonalEdgeStyle;rounded=0;orthogonalLoop=1;jettySize=auto;html=1;entryX=0;entryY=0.5;entryDx=0;entryDy=0;exitX=1;exitY=0.5;exitDx=0;exitDy=0;exitPerimeter=0;" parent="1" source="4qVqTRqzKTblFJhMyqPV-186" target="ztVvOb2c4JuOCDaLwrAS-1169" edge="1">
          <mxGeometry relative="1" as="geometry" />
        </mxCell>
        <mxCell id="ztVvOb2c4JuOCDaLwrAS-1161" value="" style="shape=table;html=1;whiteSpace=wrap;startSize=0;container=1;collapsible=0;childLayout=tableLayout;" parent="1" vertex="1">
          <mxGeometry x="2140" y="1260" width="404" height="80" as="geometry" />
        </mxCell>
        <mxCell id="ztVvOb2c4JuOCDaLwrAS-1162" value="" style="shape=partialRectangle;html=1;whiteSpace=wrap;collapsible=0;dropTarget=0;pointerEvents=0;fillColor=none;top=0;left=0;bottom=0;right=0;points=[[0,0.5],[1,0.5]];portConstraint=eastwest;" parent="ztVvOb2c4JuOCDaLwrAS-1161" vertex="1">
          <mxGeometry width="404" height="27" as="geometry" />
        </mxCell>
        <mxCell id="ztVvOb2c4JuOCDaLwrAS-1163" value="account_id" style="shape=partialRectangle;html=1;whiteSpace=wrap;connectable=0;fillColor=none;top=0;left=0;bottom=0;right=0;overflow=hidden;" parent="ztVvOb2c4JuOCDaLwrAS-1162" vertex="1">
          <mxGeometry width="136" height="27" as="geometry" />
        </mxCell>
        <mxCell id="ztVvOb2c4JuOCDaLwrAS-1164" value="&lt;span&gt;account_name&lt;/span&gt;" style="shape=partialRectangle;html=1;whiteSpace=wrap;connectable=0;fillColor=none;top=0;left=0;bottom=0;right=0;overflow=hidden;" parent="ztVvOb2c4JuOCDaLwrAS-1162" vertex="1">
          <mxGeometry x="136" width="133" height="27" as="geometry" />
        </mxCell>
        <mxCell id="ztVvOb2c4JuOCDaLwrAS-1165" value="&lt;span&gt;parameters_n&lt;/span&gt;" style="shape=partialRectangle;html=1;whiteSpace=wrap;connectable=0;fillColor=none;top=0;left=0;bottom=0;right=0;overflow=hidden;" parent="ztVvOb2c4JuOCDaLwrAS-1162" vertex="1">
          <mxGeometry x="269" width="135" height="27" as="geometry" />
        </mxCell>
        <mxCell id="ztVvOb2c4JuOCDaLwrAS-1169" value="" style="shape=partialRectangle;html=1;whiteSpace=wrap;collapsible=0;dropTarget=0;pointerEvents=0;fillColor=none;top=0;left=0;bottom=0;right=0;points=[[0,0.5],[1,0.5]];portConstraint=eastwest;" parent="ztVvOb2c4JuOCDaLwrAS-1161" vertex="1">
          <mxGeometry y="27" width="404" height="26" as="geometry" />
        </mxCell>
        <mxCell id="ztVvOb2c4JuOCDaLwrAS-1170" value="" style="shape=partialRectangle;html=1;whiteSpace=wrap;connectable=0;top=0;left=0;bottom=0;right=0;overflow=hidden;fillColor=none;" parent="ztVvOb2c4JuOCDaLwrAS-1169" vertex="1">
          <mxGeometry width="136" height="26" as="geometry" />
        </mxCell>
        <mxCell id="ztVvOb2c4JuOCDaLwrAS-1171" value="" style="shape=partialRectangle;html=1;whiteSpace=wrap;connectable=0;top=0;left=0;bottom=0;right=0;overflow=hidden;fillColor=none;" parent="ztVvOb2c4JuOCDaLwrAS-1169" vertex="1">
          <mxGeometry x="136" width="133" height="26" as="geometry" />
        </mxCell>
        <mxCell id="ztVvOb2c4JuOCDaLwrAS-1172" value="" style="shape=partialRectangle;html=1;whiteSpace=wrap;connectable=0;top=0;left=0;bottom=0;right=0;overflow=hidden;fillColor=none;" parent="ztVvOb2c4JuOCDaLwrAS-1169" vertex="1">
          <mxGeometry x="269" width="135" height="26" as="geometry" />
        </mxCell>
        <mxCell id="ztVvOb2c4JuOCDaLwrAS-1176" value="" style="shape=partialRectangle;html=1;whiteSpace=wrap;collapsible=0;dropTarget=0;pointerEvents=0;fillColor=none;top=0;left=0;bottom=0;right=0;points=[[0,0.5],[1,0.5]];portConstraint=eastwest;" parent="ztVvOb2c4JuOCDaLwrAS-1161" vertex="1">
          <mxGeometry y="53" width="404" height="27" as="geometry" />
        </mxCell>
        <mxCell id="ztVvOb2c4JuOCDaLwrAS-1177" value="" style="shape=partialRectangle;html=1;whiteSpace=wrap;connectable=0;top=0;left=0;bottom=0;right=0;overflow=hidden;fillColor=none;" parent="ztVvOb2c4JuOCDaLwrAS-1176" vertex="1">
          <mxGeometry width="136" height="27" as="geometry" />
        </mxCell>
        <mxCell id="ztVvOb2c4JuOCDaLwrAS-1178" value="" style="shape=partialRectangle;html=1;whiteSpace=wrap;connectable=0;top=0;left=0;bottom=0;right=0;overflow=hidden;fillColor=none;" parent="ztVvOb2c4JuOCDaLwrAS-1176" vertex="1">
          <mxGeometry x="136" width="133" height="27" as="geometry" />
        </mxCell>
        <mxCell id="ztVvOb2c4JuOCDaLwrAS-1179" value="" style="shape=partialRectangle;html=1;whiteSpace=wrap;connectable=0;top=0;left=0;bottom=0;right=0;overflow=hidden;fillColor=none;" parent="ztVvOb2c4JuOCDaLwrAS-1176" vertex="1">
          <mxGeometry x="269" width="135" height="27" as="geometry" />
        </mxCell>
        <mxCell id="ztVvOb2c4JuOCDaLwrAS-1187" style="edgeStyle=orthogonalEdgeStyle;rounded=0;orthogonalLoop=1;jettySize=auto;html=1;" parent="1" source="ztVvOb2c4JuOCDaLwrAS-1186" target="ztVvOb2c4JuOCDaLwrAS-1056" edge="1">
          <mxGeometry relative="1" as="geometry">
            <Array as="points">
              <mxPoint x="1650" y="709" />
              <mxPoint x="1650" y="709" />
            </Array>
          </mxGeometry>
        </mxCell>
        <mxCell id="ztVvOb2c4JuOCDaLwrAS-1186" value="&lt;b&gt;AWS EMR&lt;br&gt;&lt;/b&gt;Spark Streaming&lt;br&gt;ProjectAccountingMonthlyBalanceJob" style="points=[[0,0,0],[0.25,0,0],[0.5,0,0],[0.75,0,0],[1,0,0],[0,1,0],[0.25,1,0],[0.5,1,0],[0.75,1,0],[1,1,0],[0,0.25,0],[0,0.5,0],[0,0.75,0],[1,0.25,0],[1,0.5,0],[1,0.75,0]];outlineConnect=0;fontColor=#232F3E;gradientColor=#945DF2;gradientDirection=north;fillColor=#5A30B5;strokeColor=#ffffff;dashed=0;verticalLabelPosition=bottom;verticalAlign=top;align=center;html=1;fontSize=12;fontStyle=0;aspect=fixed;shape=mxgraph.aws4.resourceIcon;resIcon=mxgraph.aws4.emr;" parent="1" vertex="1">
          <mxGeometry x="1529" y="669.9999999999999" width="78" height="78" as="geometry" />
        </mxCell>
        <mxCell id="ztVvOb2c4JuOCDaLwrAS-1208" value="&lt;b&gt;AWS DynamoDB&lt;/b&gt;&lt;br&gt;AnalyticalAccountingDB&lt;br&gt;AccountingDailyMovement" style="points=[[0,0,0],[0.25,0,0],[0.5,0,0],[0.75,0,0],[1,0,0],[0,1,0],[0.25,1,0],[0.5,1,0],[0.75,1,0],[1,1,0],[0,0.25,0],[0,0.5,0],[0,0.75,0],[1,0.25,0],[1,0.5,0],[1,0.75,0]];outlineConnect=0;fontColor=#232F3E;gradientColor=#4D72F3;gradientDirection=north;fillColor=#3334B9;strokeColor=#ffffff;dashed=0;verticalLabelPosition=bottom;verticalAlign=top;align=center;html=1;fontSize=12;fontStyle=0;aspect=fixed;shape=mxgraph.aws4.resourceIcon;resIcon=mxgraph.aws4.dynamodb;" parent="1" vertex="1">
          <mxGeometry x="2141.5" y="490.5" width="78" height="78" as="geometry" />
        </mxCell>
        <mxCell id="MRXJrDMqa9VZ29TLoG-b-26" value="&lt;b&gt;AWS Athena&lt;/b&gt;" style="points=[[0,0,0],[0.25,0,0],[0.5,0,0],[0.75,0,0],[1,0,0],[0,1,0],[0.25,1,0],[0.5,1,0],[0.75,1,0],[1,1,0],[0,0.25,0],[0,0.5,0],[0,0.75,0],[1,0.25,0],[1,0.5,0],[1,0.75,0]];outlineConnect=0;fontColor=#232F3E;gradientColor=#945DF2;gradientDirection=north;fillColor=#5A30B5;strokeColor=#ffffff;dashed=0;verticalLabelPosition=bottom;verticalAlign=top;align=center;html=1;fontSize=12;fontStyle=0;aspect=fixed;shape=mxgraph.aws4.resourceIcon;resIcon=mxgraph.aws4.athena;" parent="1" vertex="1">
          <mxGeometry x="1529" y="870" width="78" height="78" as="geometry" />
        </mxCell>
        <mxCell id="MRXJrDMqa9VZ29TLoG-b-33" value="" style="shape=table;html=1;whiteSpace=wrap;startSize=0;container=1;collapsible=0;childLayout=tableLayout;" parent="1" vertex="1">
          <mxGeometry x="1760" y="1494.25" width="426" height="76.5" as="geometry" />
        </mxCell>
        <mxCell id="MRXJrDMqa9VZ29TLoG-b-34" value="" style="shape=partialRectangle;html=1;whiteSpace=wrap;collapsible=0;dropTarget=0;pointerEvents=0;fillColor=none;top=0;left=0;bottom=0;right=0;points=[[0,0.5],[1,0.5]];portConstraint=eastwest;" parent="MRXJrDMqa9VZ29TLoG-b-33" vertex="1">
          <mxGeometry width="426" height="27" as="geometry" />
        </mxCell>
        <mxCell id="MRXJrDMqa9VZ29TLoG-b-35" value="account_id" style="shape=partialRectangle;html=1;whiteSpace=wrap;connectable=0;fillColor=none;top=0;left=0;bottom=0;right=0;overflow=hidden;" parent="MRXJrDMqa9VZ29TLoG-b-34" vertex="1">
          <mxGeometry width="106" height="27" as="geometry" />
        </mxCell>
        <mxCell id="MRXJrDMqa9VZ29TLoG-b-36" value="account_code" style="shape=partialRectangle;html=1;whiteSpace=wrap;connectable=0;fillColor=none;top=0;left=0;bottom=0;right=0;overflow=hidden;" parent="MRXJrDMqa9VZ29TLoG-b-34" vertex="1">
          <mxGeometry x="106" width="106" height="27" as="geometry" />
        </mxCell>
        <mxCell id="MRXJrDMqa9VZ29TLoG-b-37" value="account_name" style="shape=partialRectangle;html=1;whiteSpace=wrap;connectable=0;fillColor=none;top=0;left=0;bottom=0;right=0;overflow=hidden;" parent="MRXJrDMqa9VZ29TLoG-b-34" vertex="1">
          <mxGeometry x="212" width="106" height="27" as="geometry" />
        </mxCell>
        <mxCell id="MRXJrDMqa9VZ29TLoG-b-43" value="parent_account_id" style="shape=partialRectangle;html=1;whiteSpace=wrap;connectable=0;fillColor=none;top=0;left=0;bottom=0;right=0;overflow=hidden;" parent="MRXJrDMqa9VZ29TLoG-b-34" vertex="1">
          <mxGeometry x="318" width="108" height="27" as="geometry" />
        </mxCell>
        <mxCell id="MRXJrDMqa9VZ29TLoG-b-44" value="" style="shape=partialRectangle;html=1;whiteSpace=wrap;collapsible=0;dropTarget=0;pointerEvents=0;fillColor=none;top=0;left=0;bottom=0;right=0;points=[[0,0.5],[1,0.5]];portConstraint=eastwest;" parent="MRXJrDMqa9VZ29TLoG-b-33" vertex="1">
          <mxGeometry y="27" width="426" height="25" as="geometry" />
        </mxCell>
        <mxCell id="MRXJrDMqa9VZ29TLoG-b-45" value="XXX" style="shape=partialRectangle;html=1;whiteSpace=wrap;connectable=0;top=0;left=0;bottom=0;right=0;overflow=hidden;fillColor=none;" parent="MRXJrDMqa9VZ29TLoG-b-44" vertex="1">
          <mxGeometry width="106" height="25" as="geometry" />
        </mxCell>
        <mxCell id="MRXJrDMqa9VZ29TLoG-b-46" value="111111" style="shape=partialRectangle;html=1;whiteSpace=wrap;connectable=0;top=0;left=0;bottom=0;right=0;overflow=hidden;fillColor=none;" parent="MRXJrDMqa9VZ29TLoG-b-44" vertex="1">
          <mxGeometry x="106" width="106" height="25" as="geometry" />
        </mxCell>
        <mxCell id="MRXJrDMqa9VZ29TLoG-b-47" value="CAIXA" style="shape=partialRectangle;html=1;whiteSpace=wrap;connectable=0;top=0;left=0;bottom=0;right=0;overflow=hidden;fillColor=none;" parent="MRXJrDMqa9VZ29TLoG-b-44" vertex="1">
          <mxGeometry x="212" width="106" height="25" as="geometry" />
        </mxCell>
        <mxCell id="MRXJrDMqa9VZ29TLoG-b-53" value="" style="shape=partialRectangle;html=1;whiteSpace=wrap;connectable=0;top=0;left=0;bottom=0;right=0;overflow=hidden;fillColor=none;" parent="MRXJrDMqa9VZ29TLoG-b-44" vertex="1">
          <mxGeometry x="318" width="108" height="25" as="geometry" />
        </mxCell>
        <mxCell id="MRXJrDMqa9VZ29TLoG-b-55" style="shape=partialRectangle;html=1;whiteSpace=wrap;collapsible=0;dropTarget=0;pointerEvents=0;fillColor=none;top=0;left=0;bottom=0;right=0;points=[[0,0.5],[1,0.5]];portConstraint=eastwest;" parent="MRXJrDMqa9VZ29TLoG-b-33" vertex="1">
          <mxGeometry y="52" width="426" height="25" as="geometry" />
        </mxCell>
        <mxCell id="MRXJrDMqa9VZ29TLoG-b-56" value="YYY" style="shape=partialRectangle;html=1;whiteSpace=wrap;connectable=0;top=0;left=0;bottom=0;right=0;overflow=hidden;fillColor=none;" parent="MRXJrDMqa9VZ29TLoG-b-55" vertex="1">
          <mxGeometry width="106" height="25" as="geometry" />
        </mxCell>
        <mxCell id="MRXJrDMqa9VZ29TLoG-b-57" value="111112" style="shape=partialRectangle;html=1;whiteSpace=wrap;connectable=0;top=0;left=0;bottom=0;right=0;overflow=hidden;fillColor=none;" parent="MRXJrDMqa9VZ29TLoG-b-55" vertex="1">
          <mxGeometry x="106" width="106" height="25" as="geometry" />
        </mxCell>
        <mxCell id="MRXJrDMqa9VZ29TLoG-b-58" value="CAIXA" style="shape=partialRectangle;html=1;whiteSpace=wrap;connectable=0;top=0;left=0;bottom=0;right=0;overflow=hidden;fillColor=none;" parent="MRXJrDMqa9VZ29TLoG-b-55" vertex="1">
          <mxGeometry x="212" width="106" height="25" as="geometry" />
        </mxCell>
        <mxCell id="MRXJrDMqa9VZ29TLoG-b-59" value="XXX" style="shape=partialRectangle;html=1;whiteSpace=wrap;connectable=0;top=0;left=0;bottom=0;right=0;overflow=hidden;fillColor=none;" parent="MRXJrDMqa9VZ29TLoG-b-55" vertex="1">
          <mxGeometry x="318" width="108" height="25" as="geometry" />
        </mxCell>
        <mxCell id="MRXJrDMqa9VZ29TLoG-b-63" value="&lt;b&gt;AWS DynamoDB&lt;/b&gt;&lt;br&gt;TransactionalAccountingDB&lt;br&gt;AccountingRules&lt;br&gt;AccountingEvents" style="points=[[0,0,0],[0.25,0,0],[0.5,0,0],[0.75,0,0],[1,0,0],[0,1,0],[0.25,1,0],[0.5,1,0],[0.75,1,0],[1,1,0],[0,0.25,0],[0,0.5,0],[0,0.75,0],[1,0.25,0],[1,0.5,0],[1,0.75,0]];outlineConnect=0;fontColor=#232F3E;gradientColor=#4D72F3;gradientDirection=north;fillColor=#3334B9;strokeColor=#ffffff;dashed=0;verticalLabelPosition=bottom;verticalAlign=top;align=center;html=1;fontSize=12;fontStyle=0;aspect=fixed;shape=mxgraph.aws4.resourceIcon;resIcon=mxgraph.aws4.dynamodb;" parent="1" vertex="1">
          <mxGeometry x="52" y="490.5" width="78" height="78" as="geometry" />
        </mxCell>
        <mxCell id="MRXJrDMqa9VZ29TLoG-b-69" style="edgeStyle=orthogonalEdgeStyle;rounded=0;orthogonalLoop=1;jettySize=auto;html=1;entryX=0;entryY=0.5;entryDx=0;entryDy=0;entryPerimeter=0;startArrow=none;startFill=0;endArrow=classic;endFill=1;" parent="1" source="MRXJrDMqa9VZ29TLoG-b-68" target="UU9deluZrK-pCLJk1Hoc-2" edge="1">
          <mxGeometry relative="1" as="geometry" />
        </mxCell>
        <mxCell id="MRXJrDMqa9VZ29TLoG-b-68" value="&lt;span style=&quot;color: rgb(0 , 0 , 0) ; font-size: 11px ; background-color: rgb(255 , 255 , 255)&quot;&gt;&lt;b&gt;Apache Kafka&lt;br&gt;&lt;/b&gt;business-event-captured&lt;/span&gt;" style="outlineConnect=0;fontColor=#232F3E;gradientColor=none;strokeColor=#232F3E;fillColor=#ffffff;dashed=0;verticalLabelPosition=bottom;verticalAlign=top;align=center;html=1;fontSize=12;fontStyle=0;aspect=fixed;shape=mxgraph.aws4.resourceIcon;resIcon=mxgraph.aws4.topic;" parent="1" vertex="1">
          <mxGeometry x="-50" y="309" width="60" height="60" as="geometry" />
        </mxCell>
        <mxCell id="wLyvYfdeoNj-BMRv1wWr-3" style="edgeStyle=orthogonalEdgeStyle;rounded=0;orthogonalLoop=1;jettySize=auto;html=1;entryX=0.5;entryY=0;entryDx=0;entryDy=0;entryPerimeter=0;" parent="1" target="UU9deluZrK-pCLJk1Hoc-1" edge="1">
          <mxGeometry relative="1" as="geometry">
            <mxPoint x="546" y="140" as="sourcePoint" />
            <Array as="points" />
          </mxGeometry>
        </mxCell>
        <mxCell id="MRXJrDMqa9VZ29TLoG-b-102" value="&lt;b&gt;&lt;span style=&quot;color: rgb(0 , 0 , 0) ; font-size: 11px ; background-color: rgb(255 , 255 , 255)&quot;&gt;Apache Kafka&lt;/span&gt;&lt;br style=&quot;color: rgb(0 , 0 , 0) ; font-size: 11px&quot;&gt;&lt;/b&gt;&lt;span style=&quot;color: rgb(0 , 0 , 0) ; font-size: 11px ; background-color: rgb(255 , 255 , 255)&quot;&gt;accounting-period-locked&lt;br&gt;accounting-period-unlocked&lt;br&gt;&lt;/span&gt;" style="outlineConnect=0;fontColor=#232F3E;gradientColor=none;strokeColor=#232F3E;fillColor=#ffffff;dashed=0;verticalLabelPosition=bottom;verticalAlign=top;align=center;html=1;fontSize=12;fontStyle=0;aspect=fixed;shape=mxgraph.aws4.resourceIcon;resIcon=mxgraph.aws4.topic;" parent="1" vertex="1">
          <mxGeometry x="516" y="20" width="60" height="60" as="geometry" />
        </mxCell>
        <mxCell id="MRXJrDMqa9VZ29TLoG-b-103" value="" style="edgeStyle=orthogonalEdgeStyle;rounded=0;orthogonalLoop=1;jettySize=auto;html=1;entryX=0;entryY=0.5;entryDx=0;entryDy=0;entryPerimeter=0;startArrow=none;startFill=0;endArrow=classic;endFill=1;" parent="1" target="ztVvOb2c4JuOCDaLwrAS-1186" edge="1">
          <mxGeometry relative="1" as="geometry">
            <mxPoint x="570" y="420" as="sourcePoint" />
            <Array as="points">
              <mxPoint x="570" y="709" />
            </Array>
            <mxPoint x="1529" y="709" as="targetPoint" />
          </mxGeometry>
        </mxCell>
        <mxCell id="wLyvYfdeoNj-BMRv1wWr-2" style="edgeStyle=orthogonalEdgeStyle;rounded=0;orthogonalLoop=1;jettySize=auto;html=1;" parent="1" target="MRXJrDMqa9VZ29TLoG-b-102" edge="1">
          <mxGeometry relative="1" as="geometry">
            <mxPoint x="546" y="-40" as="sourcePoint" />
          </mxGeometry>
        </mxCell>
        <mxCell id="wLyvYfdeoNj-BMRv1wWr-6" style="edgeStyle=orthogonalEdgeStyle;rounded=0;orthogonalLoop=1;jettySize=auto;html=1;entryX=0;entryY=0.5;entryDx=0;entryDy=0;entryPerimeter=0;" parent="1" source="wLyvYfdeoNj-BMRv1wWr-1" target="wLyvYfdeoNj-BMRv1wWr-5" edge="1">
          <mxGeometry relative="1" as="geometry" />
        </mxCell>
        <mxCell id="wLyvYfdeoNj-BMRv1wWr-1" value="&lt;b&gt;AWS ECS&lt;/b&gt;&lt;br&gt;AccoutingPeriodService" style="points=[[0,0,0],[0.25,0,0],[0.5,0,0],[0.75,0,0],[1,0,0],[0,1,0],[0.25,1,0],[0.5,1,0],[0.75,1,0],[1,1,0],[0,0.25,0],[0,0.5,0],[0,0.75,0],[1,0.25,0],[1,0.5,0],[1,0.75,0]];outlineConnect=0;fontColor=#232F3E;gradientColor=#F78E04;gradientDirection=north;fillColor=#D05C17;strokeColor=#ffffff;dashed=0;verticalLabelPosition=bottom;verticalAlign=top;align=center;html=1;fontSize=12;fontStyle=0;aspect=fixed;shape=mxgraph.aws4.resourceIcon;resIcon=mxgraph.aws4.ecs;" parent="1" vertex="1">
          <mxGeometry x="507" y="-160" width="78" height="78" as="geometry" />
        </mxCell>
        <mxCell id="wLyvYfdeoNj-BMRv1wWr-5" value="&lt;b&gt;AWS DynamoDB&lt;/b&gt;&lt;br&gt;TransactionalAccountingDB&lt;br&gt;AccountingPeriods" style="points=[[0,0,0],[0.25,0,0],[0.5,0,0],[0.75,0,0],[1,0,0],[0,1,0],[0.25,1,0],[0.5,1,0],[0.75,1,0],[1,1,0],[0,0.25,0],[0,0.5,0],[0,0.75,0],[1,0.25,0],[1,0.5,0],[1,0.75,0]];outlineConnect=0;fontColor=#232F3E;gradientColor=#4D72F3;gradientDirection=north;fillColor=#3334B9;strokeColor=#ffffff;dashed=0;verticalLabelPosition=bottom;verticalAlign=top;align=center;html=1;fontSize=12;fontStyle=0;aspect=fixed;shape=mxgraph.aws4.resourceIcon;resIcon=mxgraph.aws4.dynamodb;" parent="1" vertex="1">
          <mxGeometry x="730" y="-160" width="78" height="78" as="geometry" />
        </mxCell>
        <mxCell id="2LelLOpR1p7l8fURc_7i-4" style="edgeStyle=orthogonalEdgeStyle;rounded=0;orthogonalLoop=1;jettySize=auto;html=1;" edge="1" parent="1" source="wLyvYfdeoNj-BMRv1wWr-20" target="2LelLOpR1p7l8fURc_7i-3">
          <mxGeometry relative="1" as="geometry" />
        </mxCell>
        <mxCell id="wLyvYfdeoNj-BMRv1wWr-20" value="&lt;b&gt;AWS ECS&lt;/b&gt;&lt;br&gt;AccountingJournalEntrySumarizationService" style="points=[[0,0,0],[0.25,0,0],[0.5,0,0],[0.75,0,0],[1,0,0],[0,1,0],[0.25,1,0],[0.5,1,0],[0.75,1,0],[1,1,0],[0,0.25,0],[0,0.5,0],[0,0.75,0],[1,0.25,0],[1,0.5,0],[1,0.75,0]];outlineConnect=0;fontColor=#232F3E;gradientColor=#F78E04;gradientDirection=north;fillColor=#D05C17;strokeColor=#ffffff;dashed=0;verticalLabelPosition=bottom;verticalAlign=top;align=center;html=1;fontSize=12;fontStyle=0;aspect=fixed;shape=mxgraph.aws4.resourceIcon;resIcon=mxgraph.aws4.ecs;" parent="1" vertex="1">
          <mxGeometry x="1319" y="490.5" width="78" height="78" as="geometry" />
        </mxCell>
        <mxCell id="2LelLOpR1p7l8fURc_7i-22" style="edgeStyle=orthogonalEdgeStyle;rounded=0;orthogonalLoop=1;jettySize=auto;html=1;entryX=0;entryY=0.5;entryDx=0;entryDy=0;entryPerimeter=0;" edge="1" parent="1" source="2LelLOpR1p7l8fURc_7i-3" target="2LelLOpR1p7l8fURc_7i-20">
          <mxGeometry relative="1" as="geometry" />
        </mxCell>
        <mxCell id="2LelLOpR1p7l8fURc_7i-3" value="&lt;b&gt;&lt;span style=&quot;color: rgb(0 , 0 , 0) ; font-size: 11px ; background-color: rgb(255 , 255 , 255)&quot;&gt;Apache Kafka&lt;/span&gt;&lt;br style=&quot;color: rgb(0 , 0 , 0) ; font-size: 11px&quot;&gt;&lt;/b&gt;&lt;span style=&quot;color: rgb(0 , 0 , 0) ; font-size: 11px ; background-color: rgb(255 , 255 , 255)&quot;&gt;accounting-journal-entry-sumarized (ordered)&lt;/span&gt;" style="outlineConnect=0;fontColor=#232F3E;gradientColor=none;strokeColor=#232F3E;fillColor=#ffffff;dashed=0;verticalLabelPosition=bottom;verticalAlign=top;align=center;html=1;fontSize=12;fontStyle=0;aspect=fixed;shape=mxgraph.aws4.resourceIcon;resIcon=mxgraph.aws4.topic;" vertex="1" parent="1">
          <mxGeometry x="1594" y="498.5" width="60" height="60" as="geometry" />
        </mxCell>
        <mxCell id="2LelLOpR1p7l8fURc_7i-20" value="&lt;b&gt;AWS ECS&lt;/b&gt;&lt;br&gt;AccountingBalanceService" style="points=[[0,0,0],[0.25,0,0],[0.5,0,0],[0.75,0,0],[1,0,0],[0,1,0],[0.25,1,0],[0.5,1,0],[0.75,1,0],[1,1,0],[0,0.25,0],[0,0.5,0],[0,0.75,0],[1,0.25,0],[1,0.5,0],[1,0.75,0]];outlineConnect=0;fontColor=#232F3E;gradientColor=#F78E04;gradientDirection=north;fillColor=#D05C17;strokeColor=#ffffff;dashed=0;verticalLabelPosition=bottom;verticalAlign=top;align=center;html=1;fontSize=12;fontStyle=0;aspect=fixed;shape=mxgraph.aws4.resourceIcon;resIcon=mxgraph.aws4.ecs;" vertex="1" parent="1">
          <mxGeometry x="1860" y="489.5" width="78" height="78" as="geometry" />
        </mxCell>
      </root>
    </mxGraphModel>
  </diagram>
</mxfile>
